<svg xmlns="http://www.w3.org/2000/svg" width="864.97" height="689" viewBox="0 0 864.97 689">
  <defs>
    <style>
      .cls-1 {
        fill: #ffffea;
        fill-rule: evenodd;
        opacity: 0.75;
      }
    </style>
  </defs>
  <path id="_-e-bubble-a.svg" data-name="-e-bubble-a.svg" class="cls-1" d="M10407.4,902.6c-15.2,16.073-33.9,28.034-42.9,46.089-92.9,152.191-233.3,315.111-418.77,293.351-6.72-2.08-13.47-4.24-20.22-6.25s-13.53-3.86-20.31-5.29q-7.23-1.815-14.68-4c-8.71-.73-17.63-1.57-26.61-2.61-125.69-14.45-232.74-81.54-276.74-187.32q-4.71-11.325-8.3-22.85-3.6-11.505-6.1-23.177c-14.02-228.015,172.18-417.078,387.26-434.6a234.508,234.508,0,0,1,26.22-.859c77.95,18.15,162.15,27.183,238.85,56.7,7.7,2.952,15.3,6.1,23.1,9.395,36.8,16.007,75.8,36.018,108.3,62.058q9.75,7.812,18.6,16.365c40,33.563,65.6,87.433,61.5,137.66a117.715,117.715,0,0,1-3.7,21.234c-6,12.887-8.9,28.615-18.6,37.021C10411.9,897.939,10409.6,900.281,10407.4,902.6Z" transform="translate(-9572.03 -555)"/>
</svg>
