<?xml version="1.0" encoding="utf-8"?>
<!-- Generator: Adobe Illustrator 22.1.0, SVG Export Plug-In . SVG Version: 6.00 Build 0)  -->
<svg version="1.1" id="Layer_1" xmlns="http://www.w3.org/2000/svg" xmlns:xlink="http://www.w3.org/1999/xlink" x="0px" y="0px"
	 viewBox="0 0 227 73" style="enable-background:new 0 0 227 73;" xml:space="preserve">
<style type="text/css">
	.st0{fill:#1D1D1B;}
	.st1{fill:#87E275;}
	.st2{fill:#38D430;}
</style>
<g>
	<path class="st0" d="M102.1,3.4c9.9,0,14.4,7.1,14.6,14.3c0.2,7.3-4.4,14.8-14.6,14.8h-11v-29H102.1z M95.7,28h6.4
		c7.1,0,10.1-5.2,10-10.3c-0.1-4.9-3.1-9.8-10-9.8h-6.4V28z"/>
	<path class="st0" d="M126.3,23.5v8.9h-4.6v-29c4.4,0,9,0,13.4,0c13.9,0,13.9,20.1,0,20.2H126.3z M126.3,19.3h8.8
		c7.7,0,7.6-11.6,0-11.6h-8.8V19.3z"/>
	<polygon class="st0" points="91.1,40.8 92.5,40.8 102,68.8 111.4,40.8 112,40.8 121.3,68.8 131,40.8 132.4,40.8 122.2,69.9 
		120.3,69.9 115.5,55.3 111.7,43.4 107.9,55.1 102.9,69.9 101.1,69.9 	"/>
	<path class="st0" d="M163.8,55.3c0,7.7-4.9,14.9-14.6,14.9c-9.6,0-14.6-7.3-14.6-15c0-7.1,4.4-14.8,14.5-14.8
		C158.9,40.4,163.8,47.7,163.8,55.3 M149.1,41.7c-8.9,0-13.2,6.8-13.2,13.6c0,6.8,4.5,13.7,13.2,13.7c8.7,0,13.3-6.7,13.3-13.7
		C162.4,48.1,157.9,41.7,149.1,41.7"/>
	<path class="st0" d="M180.1,58.5h-8.8v11.4h-1.3V40.8h12.5c6.1,0,9,4.5,9.1,8.9c0,4.9-2.9,9-9.7,8.8l10.6,11.4h-1.8L180.1,58.5z
		 M182.1,57.2c5.4,0,8.1-3,8.1-7.5c0-3.8-2.6-7.6-7.8-7.6h-11.2v15.1H182.1z"/>
	<polygon class="st0" points="216.6,40.8 218.1,40.8 208.2,54.9 219,69.9 217.3,69.9 212.2,62.7 207.3,55.8 202.3,63 197.3,69.9 
		195.7,69.9 206.5,54.9 196.6,40.8 198.1,40.8 207.3,53.9 	"/>
	<polygon class="st1" points="45.2,17.6 60.1,17.6 60.1,32.6 74.4,32.6 74.4,3.4 45.2,3.4 	"/>
	<path class="st2" d="M40.9,56c-10.6,0-19.2-8.6-19.2-19.2c0-10.6,8.6-19.2,19.2-19.2V3.4c-18.5,0-33.5,15-33.5,33.5
		c0,18.5,15,33.5,33.5,33.5c18.5,0,33.5-15,33.5-33.5H60.1C60.1,47.4,51.5,56,40.9,56"/>
</g>
</svg>
