<svg xmlns="http://www.w3.org/2000/svg" width="865" height="689">
    <path fill="#FFFFEA" fill-rule="evenodd" d="M835.361 347.6c-15.158 16.073-33.841 28.034-42.891 46.089-92.847 152.186-233.272 315.112-418.743 293.349-6.718-2.073-13.462-4.243-20.22-6.252-6.76-2.009-13.532-3.858-20.306-5.291a367.287 367.287 0 0 1-14.677-3.99c-8.714-.732-17.637-1.579-26.615-2.611-125.693-14.453-232.739-81.548-276.735-187.32a266.293 266.293 0 0 1-8.308-22.854 260.774 260.774 0 0 1-6.099-23.177C-13.249 207.528 172.951 18.465 388.034.941c8.604-.7 17.253-1.127 26.213-.859 77.961 18.15 162.187 27.183 238.842 56.698 7.665 2.952 15.282 6.098 23.098 9.395 36.792 16.007 75.837 36.018 108.32 62.058 6.497 5.208 12.731 10.658 18.635 16.365 39.952 33.563 65.517 87.433 61.422 137.66-.584 7.176-1.775 14.277-3.617 21.234-6.001 12.887-8.924 28.615-18.659 37.021-2.352 2.426-4.665 4.768-6.927 7.087z" opacity=".749"/>
</svg>
