<svg xmlns="http://www.w3.org/2000/svg" width="911" height="803">
    <path fill="#FFFFD9" fill-rule="evenodd" d="M847.652 558.905c-20.286 12.536-42.606 19.228-57.606 36.154-142.59 136.771-335.292 268.57-508.9 178.166-5.851-4.708-11.694-9.533-17.605-14.184-5.91-4.654-11.89-9.131-18.013-13.143a367.37 367.37 0 0 1-12.962-9.687c-8.259-3.923-16.678-8.051-25.089-12.403C89.723 662.873 8.142 549.826 1.314 416.084a353.617 353.617 0 0 1-.307-28.472 349.38 349.38 0 0 1 1.96-28.045C67.144 100.065 313.452-44.589 529.379 12.518c8.637 2.284 17.226 4.893 25.88 8.386 69.9 48.048 149.031 88.152 213.775 148.421 6.475 6.027 12.835 12.254 19.339 18.72 30.447 30.981 61.727 67.235 84.542 107.878 4.563 8.128 8.788 16.435 12.601 24.911 27.538 51.702 34.102 120.944 12.951 175.546-3.021 7.801-6.608 15.303-10.78 22.414-10.259 12.24-18.481 28.757-30.854 34.669-3.125 1.871-6.182 3.66-9.181 5.442z" opacity=".302"/>
</svg>
