<?xml version="1.0" encoding="utf-8"?>
<!-- Generator: Adobe Illustrator 21.0.0, SVG Export Plug-In . SVG Version: 6.00 Build 0)  -->
<svg version="1.1" id="Layer_1" xmlns="http://www.w3.org/2000/svg" xmlns:xlink="http://www.w3.org/1999/xlink" x="0px" y="0px"
	 viewBox="0 0 649.1 144.4" style="enable-background:new 0 0 649.1 144.4;" xml:space="preserve">
<style type="text/css">
	.st0{fill:#FFFFFF;}
	.st1{opacity:0.7;fill:#FFFFFF;enable-background:new    ;}
</style>
<g>
	<path class="st0" d="M256.7,37.2c-20,0-36.2,16.2-36.2,36.2s16.2,36.2,36.2,36.2s36.2-16.2,36.2-36.2S276.6,37.2,256.7,37.2z
		 M256.7,94.2c-11.5,0-20.8-9.3-20.8-20.8s9.3-20.8,20.8-20.8s20.8,9.3,20.8,20.8S268.1,94.2,256.7,94.2z"/>
	<path class="st0" d="M175.2,37.2c-20,0-36.2,16.2-36.2,36.2s16.2,36.2,36.2,36.2s36.2-16.2,36.2-36.2S195.2,37.2,175.2,37.2z
		 M175.2,94.2c-11.5,0-20.8-9.3-20.8-20.8s9.3-20.8,20.8-20.8S196,61.9,196,73.4S186.7,94.2,175.2,94.2z"/>
	<path class="st0" d="M558.3,37.2c-20,0-36.2,16.2-36.2,36.2s16.2,36.2,36.2,36.2s36.2-16.2,36.2-36.2S578.3,37.2,558.3,37.2z
		 M558.3,94.2c-11.5,0-20.8-9.3-20.8-20.8s9.3-20.8,20.8-20.8s20.8,9.3,20.8,20.8S569.8,94.2,558.3,94.2z"/>
	<path class="st0" d="M476.9,37.2c-20,0-36.2,16.2-36.2,36.2s16.2,36.2,36.2,36.2s36.2-16.2,36.2-36.2S496.9,37.2,476.9,37.2z
		 M476.9,94.2c-11.5,0-20.8-9.3-20.8-20.8s9.3-20.8,20.8-20.8s20.8,9.3,20.8,20.8S488.3,94.2,476.9,94.2z"/>
	<path class="st0" d="M436.4,37.2h-17.9c-0.2,0-0.5,0.1-0.6,0.3l-16.4,25.9l-16.4-25.9c-0.1-0.2-0.4-0.3-0.6-0.3h-17.9
		c-0.6,0-0.9,0.6-0.6,1.1L388,73c0.1,0.2,0.1,0.5,0,0.8l-22,34.7c-0.3,0.5,0,1.1,0.6,1.1h17.9c0.2,0,0.5-0.1,0.6-0.3l16.4-25.9
		l16.4,25.9c0.1,0.2,0.4,0.3,0.6,0.3h17.9c0.6,0,0.9-0.6,0.6-1.1l-22-34.7c-0.1-0.2-0.1-0.5,0-0.8l22-34.7
		C437.3,37.8,436.9,37.2,436.4,37.2z"/>
	<path class="st1" d="M341.1,97.6H328c-0.6,0-1-0.4-1-1V50.3c0-0.6,0.4-1,1-1h13.1c0.6,0,1,0.4,1,1v46.3
		C342.1,97.1,341.7,97.6,341.1,97.6z"/>
	<path class="st0" d="M310.5,80V66.9c0-0.6,0.4-1,1-1h46.3c0.6,0,1,0.4,1,1V80c0,0.6-0.4,1-1,1h-46.3C310.9,81,310.5,80.5,310.5,80z
		"/>
	<path class="st0" d="M90.7,70.5l-33.9-33c-0.9-0.8-2.3-0.2-2.3,1v27.2v42.6c0,0.7,0.6,1.4,1.4,1.4h13l0,0c0.7,0,1.4-0.6,1.4-1.4
		v-36l19.5,19c0.6,0.5,1.4,0.5,2,0l19.5-19v36c0,0.7,0.6,1.4,1.4,1.4l0,0h13c0.7,0,1.4-0.6,1.4-1.4V65.7V38.5c0-1.2-1.4-1.8-2.3-1
		L90.7,70.5z"/>
</g>
</svg>
