<svg xmlns="http://www.w3.org/2000/svg" width="865" height="689" viewBox="0 0 865 689">
  <defs>
    <style>
      .cls-1 {
        fill: #e8ffeb;
        fill-rule: evenodd;
        opacity: 0.5;
      }
    </style>
  </defs>
  <path id="_-e-buble.svg" data-name="-e-buble.svg" class="cls-1" d="M1769.36,1723.6c-15.16,16.07-33.84,28.03-42.89,46.09-92.85,152.19-233.28,315.11-418.76,293.35-6.72-2.08-13.46-4.24-20.22-6.25s-13.53-3.86-20.31-5.29q-7.23-1.815-14.68-4c-8.71-.73-17.63-1.57-26.61-2.61-125.7-14.45-232.749-81.54-276.747-187.32q-4.713-11.325-8.309-22.85-3.6-11.505-6.1-23.18c-14.017-228.01,172.2-417.07,387.285-434.6a233.77,233.77,0,0,1,26.21-.86c77.96,18.15,162.19,27.18,238.85,56.7,7.67,2.95,15.28,6.1,23.1,9.39,36.79,16.01,75.84,36.02,108.32,62.06q9.75,7.815,18.64,16.37c39.95,33.56,65.52,87.43,61.42,137.66a121.255,121.255,0,0,1-3.61,21.23c-6.01,12.89-8.93,28.62-18.66,37.02C1773.93,1718.94,1771.62,1721.28,1769.36,1723.6Z" transform="translate(-934 -1376)"/>
</svg>
