<svg xmlns="http://www.w3.org/2000/svg" width="865" height="689" viewBox="0 0 865 689">
  <defs>
    <style>
      .cls-1 {
        fill: #effefc;
        fill-rule: evenodd;
      }
    </style>
  </defs>
  <path id="_-e-bubble-m.svg" data-name="-e-bubble-m.svg" class="cls-1" d="M6130.36,812.6c-15.16,16.074-33.84,28.034-42.89,46.089-92.85,152.191-233.27,315.111-418.74,293.351-6.72-2.07-13.47-4.24-20.22-6.25s-13.53-3.86-20.31-5.29q-7.23-1.815-14.68-4c-8.71-.73-17.63-1.57-26.61-2.61-125.69-14.45-232.74-81.54-276.74-187.316q-4.71-11.332-8.3-22.854t-6.1-23.177c-14.02-228.015,172.18-417.077,387.26-434.6a234.271,234.271,0,0,1,26.22-.858c77.96,18.149,162.18,27.182,238.84,56.7,7.66,2.952,15.28,6.1,23.1,9.394,36.79,16.008,75.83,36.019,108.32,62.059,6.49,5.209,12.73,10.658,18.63,16.365,39.95,33.563,65.52,87.433,61.42,137.66a121.157,121.157,0,0,1-3.61,21.234c-6.01,12.887-8.93,28.615-18.66,37.022C6134.94,807.94,6132.62,810.281,6130.36,812.6Z" transform="translate(-5295 -465)"/>
</svg>
