<svg xmlns="http://www.w3.org/2000/svg" width="816.7" height="692.998" viewBox="0 0 816.7 692.998">
  <defs>
    <style>
      .cls-1 {
        fill: #effefc;
        fill-rule: evenodd;
      }
    </style>
  </defs>
  <path id="_-e-bubble-c.svg" data-name="-e-bubble-c.svg" class="cls-1" d="M14073.8,445.442c22.1-.647,43.8,4.106,62.9-2.26,173.3-41.961,387.8-57.871,503.6,88.665,3.3,6.217,6.5,12.52,9.8,18.719,3.4,6.2,6.9,12.3,10.7,18.1q3.75,6.391,7.5,13.2c5.7,6.68,11.4,13.588,17,20.666,78.7,99.1,106.9,222.235,63.2,328.137a240.374,240.374,0,0,1-10.3,22.034q-5.55,10.686-12,20.7c-151.4,171.145-416.7,173.165-581.2,33.465a221.787,221.787,0,0,1-19.1-17.924c-42.3-67.959-95.5-133.9-128.8-208.977-3.4-7.507-6.5-15.118-9.7-22.976-14.7-37.334-28.2-79.094-32.7-120.476-0.9-8.276-1.5-16.537-1.6-24.748-4.6-51.983,15.5-108.153,53.9-140.773a122.808,122.808,0,0,1,17.5-12.457c13.4-4.868,26.6-13.924,39.4-12.984C14067.3,445.5,14070.6,445.482,14073.8,445.442Z" transform="translate(-13952.4 -414.062)"/>
</svg>
