<?xml version="1.0" encoding="utf-8"?>
<!-- Generator: Adobe Illustrator 22.1.0, SVG Export Plug-In . SVG Version: 6.00 Build 0)  -->
<svg version="1.1" id="Layer_1" xmlns="http://www.w3.org/2000/svg" xmlns:xlink="http://www.w3.org/1999/xlink" x="0px" y="0px"
	 viewBox="0 0 77.5 68.1" style="enable-background:new 0 0 77.5 68.1;" xml:space="preserve">
<style type="text/css">
	.st0{fill:#38D430;}
	.st1{fill:none;stroke:#222222;stroke-width:2;stroke-miterlimit:10;}
</style>
<g>
	<g>
		<path class="st0" d="M29,6.8c0-1.4-1.1-2.5-2.5-2.5c-1.4,0-2.5,1.1-2.5,2.5s1.1,2.5,2.5,2.5C27.9,9.3,29,8.2,29,6.8z"/>
		<line class="st1" x1="0.4" y1="67.1" x2="74.8" y2="67.1"/>
		<rect x="0.4" y="34" class="st0" width="8.2" height="26.1"/>
		<rect x="66.6" y="20.5" class="st0" width="8.2" height="39.6"/>
		<rect x="22.5" y="20" class="st0" width="8.2" height="40.1"/>
		<ellipse transform="matrix(0.3827 -0.9239 0.9239 0.3827 10.1149 28.7181)" class="st1" cx="26.5" cy="6.8" rx="5.8" ry="5.8"/>
		<path class="st0" d="M73.2,7.3c0-1.4-1.1-2.5-2.5-2.5c-1.4,0-2.5,1.1-2.5,2.5c0,1.4,1.1,2.5,2.5,2.5C72.1,9.8,73.2,8.7,73.2,7.3z"
			/>
		<ellipse transform="matrix(0.9872 -0.1598 0.1598 0.9872 -0.2564 11.3858)" class="st1" cx="70.7" cy="7.3" rx="5.8" ry="5.8"/>
		<rect x="44.5" y="32.5" class="st0" width="8.2" height="27.6"/>
		<circle class="st1" cx="48.6" cy="19.3" r="3.5"/>
		<path class="st1" d="M8,20.8c0-1.9-1.6-3.5-3.5-3.5c-1.9,0-3.5,1.6-3.5,3.5c0,1.9,1.6,3.5,3.5,3.5C6.4,24.3,8,22.8,8,20.8z"/>
		<line class="st1" x1="7.1" y1="18.5" x2="21.6" y2="9.7"/>
		<line class="st1" x1="31.9" y1="9" x2="45.1" y2="17.4"/>
		<line class="st1" x1="51.7" y1="17.7" x2="65.5" y2="9.8"/>
	</g>
</g>
</svg>
