<?xml version="1.0" encoding="utf-8"?>
<!-- Generator: Adobe Illustrator 22.1.0, SVG Export Plug-In . SVG Version: 6.00 Build 0)  -->
<svg version="1.1" id="Layer_1" xmlns="http://www.w3.org/2000/svg" xmlns:xlink="http://www.w3.org/1999/xlink" x="0px" y="0px"
	 viewBox="0 0 53 72.6" style="enable-background:new 0 0 53 72.6;" xml:space="preserve">
<style type="text/css">
	.st0{fill:#38D430;}
	.st1{fill:none;stroke:#222222;stroke-width:2;stroke-miterlimit:10;}
</style>
<rect x="15.4" y="26.2" transform="matrix(-1.836970e-16 1 -1 -1.836970e-16 50.3941 15.7085)" class="st0" width="3.9" height="13.7"/>
<rect x="24.8" y="-3.8" transform="matrix(-1.836970e-16 1 -1 -1.836970e-16 38.7308 -14.3146)" class="st0" width="3.4" height="32.1"/>
<path class="st1" d="M51,1H2C1.5,1,1,1.5,1,2v68.5c0,0.6,0.5,1,1,1h49c0.6,0,1-0.5,1-1V2C52,1.5,51.6,1,51,1z"/>
<rect x="8.2" y="8.2" class="st1" width="36.7" height="8.1"/>
<rect x="8.2" y="28.8" class="st1" width="36.7" height="35.2"/>
<line class="st1" x1="17.4" y1="37.4" x2="17.4" y2="63.9"/>
<line class="st1" x1="26.5" y1="28.8" x2="26.5" y2="64.2"/>
<line class="st1" x1="35.7" y1="29" x2="35.7" y2="64.4"/>
<line class="st1" x1="44.9" y1="37.3" x2="8.2" y2="37.3"/>
<line class="st1" x1="44.9" y1="46.5" x2="8.2" y2="46.5"/>
<line class="st1" x1="44.9" y1="55.6" x2="8.2" y2="55.6"/>
</svg>
