<?xml version="1.0" encoding="utf-8"?>
<!-- Generator: Adobe Illustrator 22.1.0, SVG Export Plug-In . SVG Version: 6.00 Build 0)  -->
<svg version="1.1" id="Layer_1" xmlns="http://www.w3.org/2000/svg" xmlns:xlink="http://www.w3.org/1999/xlink" x="0px" y="0px"
	 viewBox="0 0 93 68" style="enable-background:new 0 0 93 68;" xml:space="preserve">
<style type="text/css">
	.st0{fill:#38D430;}
	.st1{fill:none;stroke:#222222;stroke-width:2;stroke-linecap:round;stroke-linejoin:round;stroke-miterlimit:10;}
	.st2{fill:none;stroke:#222222;stroke-width:2;stroke-miterlimit:10;}
</style>
<g>
	<rect x="1.5" y="35" class="st0" width="64.7" height="9.6"/>
	<rect x="68.8" y="48.6" class="st0" width="20.2" height="9.6"/>
	<g>
		<path class="st1" d="M40.2,54h11.3c0,0-0.3,2.9,0.3,5.7c0.4,2.2,2,4.1,4.4,5.3l0,0c0.7,0.3,0.4,1.1-0.4,1.1H40.2H24.6
			c-0.8,0-1.1-0.8-0.4-1.1l0,0c2.4-1.2,4-3.1,4.4-5.3c0.6-2.8,0.3-5.7,0.3-5.7H40.2z"/>
		<path class="st1" d="M40.9,49.3c0,0.4-0.3,0.8-0.8,0.8c-0.4,0-0.8-0.3-0.8-0.8c0-0.4,0.3-0.8,0.8-0.8
			C40.6,48.6,40.9,48.9,40.9,49.3z"/>
		<path class="st1" d="M66.2,54H28.9H5.3c-2.1,0-3.8-1.7-3.8-3.8v-5.5h15"/>
		<path class="st1" d="M66.2,44.7H1.5V34.4V5.3c0-2.3,1.9-4.1,4.1-4.1h69.1c2.3,0,4.1,1.9,4.1,4.1v19.2"/>
	</g>
	<line id="XMLID_12_" class="st2" x1="89" y1="57.8" x2="68.8" y2="57.8"/>
	<path id="XMLID_11_" class="st2" d="M89.5,66.1H68.2c-1.1,0-1.9-0.9-1.9-1.9V44.7V26.5c0-1.1,0.9-1.9,1.9-1.9h10.7h10.7
		c1.1,0,1.9,0.9,1.9,1.9v37.7C91.5,65.3,90.6,66.1,89.5,66.1z"/>
	<path id="XMLID_10_" class="st2" d="M79.5,62c0-0.4-0.3-0.7-0.7-0.7c-0.4,0-0.7,0.3-0.7,0.7c0,0.4,0.3,0.7,0.7,0.7
		C79.2,62.7,79.5,62.4,79.5,62z"/>
	<polyline id="XMLID_9_" class="st1" points="76.3,28.7 78.9,28.7 81.4,28.7 	"/>
</g>
</svg>
