<svg xmlns="http://www.w3.org/2000/svg" width="852.16" height="802.84" viewBox="0 0 852.16 802.84">
  <defs>
    <style>
      .cls-1 {
        fill: #ffffd9;
        fill-rule: evenodd;
        opacity: 0.3;
      }
    </style>
  </defs>
  <path id="_-e-island-macbook.svg" data-name="-e-island-macbook.svg" class="cls-1" d="M2304.65,10240.9c-20.28,12.5-42.6,19.2-57.6,36.2-142.59,136.7-335.3,268.5-508.9,178.1-5.85-4.7-11.7-9.5-17.61-14.2-5.91-4.6-11.89-9.1-18.01-13.1-4.3-3.1-8.63-6.3-12.96-9.7-8.26-3.9-16.68-8-25.09-12.4-117.76-60.9-199.34-174-206.17-307.7q-0.72-14.4-.3-28.5c0.28-9.4.93-18.8,1.96-28,64.17-259.53,310.48-404.19,526.41-347.08a215.043,215.043,0,0,1,25.88,8.38c69.9,48.05,149.03,88.16,213.77,148.42,6.48,6.03,12.84,12.26,19.34,18.73,30.45,30.98,61.73,67.23,84.55,107.87q6.84,12.195,12.6,24.88c27.53,51.7,34.1,121,12.95,175.6a154,154,0,0,1-10.78,22.4c-10.26,12.2-18.48,28.8-30.86,34.7Q2309.15,10238.2,2304.65,10240.9Z" transform="translate(-1457.84 -9682.16)"/>
</svg>
