<?xml version="1.0" encoding="utf-8"?>
<!-- Generator: Adobe Illustrator 22.1.0, SVG Export Plug-In . SVG Version: 6.00 Build 0)  -->
<svg version="1.1" id="Layer_1" xmlns="http://www.w3.org/2000/svg" xmlns:xlink="http://www.w3.org/1999/xlink" x="0px" y="0px"
	 viewBox="0 0 96 96" style="enable-background:new 0 0 96 96;" xml:space="preserve">
<style type="text/css">
	.st0{fill:none;stroke:#222222;stroke-width:2;stroke-linecap:round;stroke-miterlimit:10;}
	.st1{fill:#38D430;}
	.st2{fill:none;stroke:#222222;stroke-width:2;stroke-linecap:round;stroke-linejoin:round;stroke-miterlimit:10;}
</style>
<path class="st0" d="M51.7,80.6l1.2-6.7c1.5-8.7,2.3-17.5,2.3-26.3V13.1c0-2.7-0.8-5.3-2.3-7.6c-0.7-1-1.4-1.9-2-2.6
	c-1.3-1.5-3.9-1.5-5.2,0c-0.7,0.7-1.4,1.6-2,2.6c-1.5,2.3-2.3,4.9-2.3,7.6v34.4c0,8.8,0.8,17.6,2.3,26.3l1.2,6.7"/>
<path class="st1" d="M46.6,18.6c0.5-0.7,1-1.4,1.6-2.2c0.6,0.7,1.1,1.4,1.6,2.2c0.4,0.5,0.7,1.1,1,1.7v-7.2c0-1.8-0.5-3.6-1.6-5.1
	c-0.3-0.5-0.6-0.9-1-1.4c-0.4,0.4-0.7,0.9-1,1.4c-1,1.5-1.6,3.3-1.6,5.1v7.2C46,19.7,46.3,19.1,46.6,18.6z"/>
<g>
	<line class="st0" x1="71.8" y1="36.3" x2="77.5" y2="38.5"/>
	<line class="st0" x1="55.2" y1="29.8" x2="65.6" y2="33.9"/>
	<line class="st0" x1="83.7" y1="56.5" x2="83.7" y2="63.5"/>
	<line class="st0" x1="71.8" y1="54.9" x2="71.8" y2="61.9"/>
	<path class="st0" d="M65.6,33.9V32c0-1.2,1-2.2,2.2-2.2h1.9c1.2,0,2.2,1,2.2,2.2v4.3"/>
	<path class="st0" d="M77.5,38.5v-2.1c0-1.2,1-2.2,2.2-2.2h1.9c1.2,0,2.2,1,2.2,2.2v4.5l3.2,1.2c0.9,0.4,1.8,0.8,2.7,1.3
		c2.1,1.3,5.2,3.8,5.2,7.1l-39.5-6"/>
</g>
<g>
	<line class="st0" x1="24.7" y1="36.3" x2="19" y2="38.5"/>
	<line class="st0" x1="41.3" y1="29.8" x2="30.9" y2="33.9"/>
	<line class="st0" x1="12.8" y1="56.5" x2="12.8" y2="63.5"/>
	<line class="st0" x1="24.7" y1="54.9" x2="24.7" y2="61.9"/>
	<path class="st0" d="M30.9,33.9V32c0-1.2-1-2.2-2.2-2.2h-1.9c-1.2,0-2.2,1-2.2,2.2v4.3"/>
	<path class="st0" d="M19,38.5v-2.1c0-1.2-1-2.2-2.2-2.2H15c-1.2,0-2.2,1-2.2,2.2v4.5l-3.2,1.2c-0.9,0.4-1.8,0.8-2.7,1.3
		c-2.1,1.3-5.2,3.8-5.2,7.1l39.5-6"/>
</g>
<path class="st2" d="M51.7,80.6c0,0,9.1,1.5,9.1,11.2c0,0-2.5-2.4-7.5-2.4"/>
<path class="st2" d="M44.8,80.6c0,0-9.1,1.5-9.1,11.2c0,0,2.5-2.4,7.5-2.4"/>
<line class="st2" x1="48.3" y1="87.6" x2="48.3" y2="94.6"/>
</svg>
