<?xml version="1.0" encoding="utf-8"?>
<!-- Generator: Adobe Illustrator 22.1.0, SVG Export Plug-In . SVG Version: 6.00 Build 0)  -->
<svg version="1.1" id="Layer_1" xmlns="http://www.w3.org/2000/svg" xmlns:xlink="http://www.w3.org/1999/xlink" x="0px" y="0px"
	 viewBox="0 0 318 72" style="enable-background:new 0 0 318 72;" xml:space="preserve">
<style type="text/css">
	.st0{font-family:'Nexa-Light';}
	.st1{font-size:36.615px;}
	.st2{letter-spacing:1;}
	.st3{font-family:'NexaBold';}
	.st4{fill:#87E275;}
	.st5{fill:#38D430;}
</style>
<g>
	<text transform="matrix(1 0 0 1 141.7432 26.7065)"><tspan x="0" y="0" class="st0 st1">e</tspan><tspan x="20.8" y="0" class="st0 st1">x</tspan><tspan x="38.1" y="0" class="st0 st1">p</tspan><tspan x="61.2" y="0" class="st0 st1">e</tspan><tspan x="82.5" y="0" class="st0 st1 st2">r</tspan><tspan x="98.3" y="0" class="st0 st1">t</tspan></text>
	<text transform="matrix(1 0 0 1 141.7432 60.21)"><tspan x="0" y="0" class="st3 st1">c</tspan><tspan x="16.8" y="0" class="st3 st1">o</tspan><tspan x="37.7" y="0" class="st3 st1">n</tspan><tspan x="59" y="0" class="st3 st1">su</tspan><tspan x="98.2" y="0" class="st3 st1">l</tspan><tspan x="106" y="0" class="st3 st1">t</tspan><tspan x="120.5" y="0" class="st3 st1">i</tspan><tspan x="128.7" y="0" class="st3 st1">n</tspan><tspan x="150" y="0" class="st3 st1">g</tspan></text>
	<path class="st4" d="M111.1,55.8H99.4c-0.5,0-0.9-0.4-0.9-0.9v-41c0-0.5,0.4-0.9,0.9-0.9h11.6c0.5,0,0.9,0.4,0.9,0.9v41
		C111.9,55.4,111.5,55.8,111.1,55.8"/>
	<path class="st5" d="M126.7,28.6v11.6c0,0.5-0.4,0.9-0.9,0.9h-41c-0.5,0-0.9-0.4-0.9-0.9V28.6c0-0.5,0.4-0.9,0.9-0.9h41
		C126.3,27.7,126.7,28.1,126.7,28.6"/>
	<path class="st5" d="M35.7,31.9L5.6,2.6c-0.8-0.7-2-0.2-2,0.9v24.1v37.7c0,0.7,0.5,1.2,1.2,1.2h11.5c0.7,0,1.2-0.5,1.2-1.2v-32
		l17.3,16.9c0.5,0.5,1.3,0.5,1.8,0l17.3-16.9v32c0,0.7,0.5,1.2,1.2,1.2h11.5c0.7,0,1.2-0.5,1.2-1.2V27.6V3.4c0-1.1-1.3-1.6-2-0.9
		L35.7,31.9z"/>
</g>
</svg>
