<?xml version="1.0" encoding="utf-8"?>
<!-- Generator: Adobe Illustrator 22.1.0, SVG Export Plug-In . SVG Version: 6.00 Build 0)  -->
<svg version="1.1" id="Layer_1" xmlns="http://www.w3.org/2000/svg" xmlns:xlink="http://www.w3.org/1999/xlink" x="0px" y="0px"
	 viewBox="0 0 300 73" style="enable-background:new 0 0 300 73;" xml:space="preserve">
<style type="text/css">
	.st0{fill:#222222;}
	.st1{fill:#87E275;}
	.st2{fill:#38D430;}
</style>
<g>
	<g>
		<path class="st0" d="M146.5,39.2V11.7h1.8V16c1.5-2.8,4.4-4.7,8-4.7c5,0.2,9,3.6,9,9.5c0,6.2-4.2,9.6-9.4,9.6
			c-3.2,0-6.1-1.5-7.7-4.6v13.3H146.5z M163.5,20.9c0-5.2-3.4-7.8-7.6-7.8c-4.3,0-7.5,3.3-7.5,7.8c0,4.5,3.3,7.8,7.5,7.8
			C160.1,28.8,163.5,26.1,163.5,20.9z"/>
		<path class="st0" d="M171.4,11.7l0.1,3.3c1.2-2.5,3.8-3.5,6.2-3.5c1.4,0,2.7,0.3,4,1.1l-0.8,1.5c-1-0.6-2.1-0.9-3.2-0.9
			c-3.5,0-6.1,2.8-6.1,6.2v10.8h-1.8V11.7H171.4z"/>
		<path class="st0" d="M182.4,20.9c0-5.6,4.2-9.6,9.4-9.6s9.9,3.2,9.2,10.4h-16.7c0.4,4.4,3.7,6.9,7.5,6.9c2.4,0,5.3-1,6.7-2.8
			l1.3,1.1c-1.8,2.4-5,3.6-8,3.6C186.6,30.5,182.4,26.8,182.4,20.9z M199.3,20.2c0-4.6-3-7.1-7.5-7.1c-3.8,0-7.1,2.6-7.5,7.1H199.3z
			"/>
		<path class="st0" d="M232.5,30.2V19.1c0-3.6-2.4-6.1-5.9-6.1c-3.5,0-6,2.6-6,6.2v11h-1.8v-11c0-3.6-2.4-6.2-6-6.2
			s-5.9,2.6-5.9,6.2v11H205V11.7h1.7l0,3.1c1.3-2.4,3.6-3.5,6-3.5c2.8,0,5.8,1.3,6.9,4.6c1.1-3,4-4.6,6.9-4.6c4.5,0,7.8,3.2,7.8,7.8
			v11.1H232.5z"/>
		<path class="st0" d="M242.1,5.6c0,2-3,2-3,0C239.1,3.7,242.1,3.7,242.1,5.6z M239.6,11.6v18.6h1.8V11.6H239.6z"/>
		<path class="st0" d="M261.5,30.2v-3.3c-1.4,2.6-4,3.6-6.6,3.6c-5,0-8.4-3-8.4-8.2V11.6h1.8v10.7c0,4.2,2.6,6.5,6.6,6.4
			c3.8,0,6.5-2.9,6.5-6.8V11.6h1.8v18.6H261.5z"/>
		<path class="st0" d="M296.2,30.2V19.1c0-3.6-2.4-6.1-5.9-6.1c-3.5,0-6,2.6-6,6.2v11h-1.8v-11c0-3.6-2.4-6.2-6-6.2
			c-3.5,0-5.9,2.6-5.9,6.2v11h-1.8V11.7h1.7l0,3.1c1.3-2.4,3.6-3.5,6-3.5c2.8,0,5.8,1.3,6.9,4.6c1.1-3,4-4.6,6.9-4.6
			c4.5,0,7.8,3.2,7.8,7.8v11.1H296.2z"/>
		<path class="st0" d="M151.5,46h5.7v2.6h-5.8v9.8c0,2.2,0.7,3.6,2.9,3.6c0.8,0,1.8-0.3,2.6-0.7l0.9,2.6c-1.2,0.6-2.4,0.9-3.6,0.9
			c-4,0.1-5.9-2.3-5.9-6.3v-9.8h-3.7V46h3.7v-5.1l3.1-0.3V46z"/>
		<path class="st0" d="M163.6,46l0.2,2.8c1.3-2.4,3.6-3.1,5.7-3.1c1.6,0,3.2,0.5,4.3,1.4l-1.4,2.6c-1-0.7-2-1-3.2-1
			c-3,0-5.4,2.1-5.4,5.6v10.3h-3.1V46L163.6,46L163.6,46z"/>
		<path class="st0" d="M191,64.6l-0.1-3.4c-1.5,2.6-4.3,3.8-6.8,3.8c-5.3,0-9.5-3.7-9.5-9.7c0-6,4.2-9.6,9.5-9.6
			c2.8,0,5.5,1.3,6.9,3.7l0-3.4h3v18.5L191,64.6L191,64.6z M184.2,48.6c-3.7,0-6.6,2.6-6.6,6.8c0,4.1,3,6.8,6.6,6.8
			C193.2,62.2,193.2,48.6,184.2,48.6L184.2,48.6z"/>
		<path class="st0" d="M202.7,40.4c0,2.7-4.1,2.7-4.1,0C198.6,37.7,202.7,37.7,202.7,40.4z M199.1,64.5h3.1V45.9h-3.1V64.5z"/>
		<path class="st0" d="M207.2,46h2.8l0.1,3c1.6-2.2,3.9-3.2,6.3-3.2c4.7,0,8.1,3.2,8.1,8.6v10.3h-3.1V54.3c0-3.6-2.1-5.8-5.6-5.8
			c-3.4,0-5.7,2.7-5.7,6v10h-3V46L207.2,46z"/>
		<path class="st0" d="M232.9,40.4c0,2.7-4.1,2.7-4.1,0C228.9,37.7,232.9,37.7,232.9,40.4z M229.3,64.5h3.1V45.9h-3.1V64.5z"/>
		<path class="st0" d="M237.4,46h2.8l0.1,3c1.6-2.2,3.9-3.2,6.3-3.2c4.7,0,8.1,3.2,8.1,8.6v10.3h-3.1V54.3c0-3.6-2.1-5.8-5.6-5.8
			c-3.4,0-5.7,2.7-5.7,6v10h-3V46L237.4,46z"/>
		<path class="st0" d="M268.2,72.8c3.2,0,6.5-1.2,6.5-4.4c0-3-3-4.5-6.5-4.5c-5.8,0-9.8-3.4-9.8-9.2c0-6.1,5-9.2,9.8-9.2
			c1.7,0,3.9,0.5,5.3,1.4l2-2.4l2.2,1.7l-2.1,2.5c1.5,1.7,2.4,3.3,2.4,6c0,3.2-1.6,6.4-5.2,7.5c3.6,1.1,5.1,3.4,5.1,6
			c0,4.8-4.8,7.2-9.7,7.2c-5.6,0-9.6-2.9-9.5-7.9h3C261.6,71.3,264.8,72.7,268.2,72.8z M268.2,61.2c3.9,0,6.7-2.9,6.7-6.4
			c0-4.2-3.2-6.4-6.7-6.4c-3.3,0-6.8,2.1-6.8,6.4C261.5,59,264.5,61.2,268.2,61.2z"/>
	</g>
	<g>
		<path class="st1" d="M111.7,60h-11.5c-0.6,0-1.1-0.5-1.1-1.1V17.2c0-0.6,0.5-1.1,1.1-1.1h11.5c0.6,0,1.1,0.5,1.1,1.1v41.6
			C112.9,59.5,112.4,60,111.7,60z"/>
		<path class="st2" d="M128,32.3v11.5c0,0.6-0.5,1.1-1.1,1.1H85.2c-0.6,0-1.1-0.5-1.1-1.1V32.3c0-0.6,0.5-1.1,1.1-1.1h41.6
			C127.5,31.2,128,31.7,128,32.3z"/>
	</g>
	<path class="st2" d="M34.7,35.5L3.9,5.4C3.1,4.7,1.8,5.2,1.8,6.3v24.8v38.7C1.8,70.5,2.3,71,3,71h11.8h0c0.7,0,1.2-0.6,1.2-1.2V37
		l17.8,17.3c0.5,0.5,1.3,0.5,1.8,0L53.3,37v32.8c0,0.7,0.6,1.2,1.2,1.2l0,0h11.8c0.7,0,1.2-0.6,1.2-1.2V31.1V6.3
		c0-1.1-1.3-1.6-2.1-0.9L34.7,35.5z"/>
</g>
</svg>
