<?xml version="1.0" encoding="utf-8"?>
<!-- Generator: Adobe Illustrator 22.1.0, SVG Export Plug-In . SVG Version: 6.00 Build 0)  -->
<svg version="1.1" id="Layer_1" xmlns="http://www.w3.org/2000/svg" xmlns:xlink="http://www.w3.org/1999/xlink" x="0px" y="0px"
	 viewBox="0 0 96 81" style="enable-background:new 0 0 96 81;" xml:space="preserve">
<style type="text/css">
	.st0{fill:none;stroke:#222222;stroke-width:2;stroke-linecap:round;stroke-linejoin:round;stroke-miterlimit:10;}
	.st1{fill:#38D430;}
</style>
<g>
	<path class="st0" d="M0.8,0.6h7.3c4,0,7.6,2.7,8.7,6.6l13.9,49c1.5,5.5,6.5,9.2,12.2,9.2h44.2"/>
	<path class="st0" d="M33.7,24l7,25.3h48.1l6.3-32.3c0.4-1.8-1.1-3.6-2.9-3.6H18.7"/>
	<line class="st0" x1="46" y1="23.9" x2="49" y2="42.9"/>
	<line class="st0" x1="58.9" y1="23.9" x2="58.9" y2="42.9"/>
	<line class="st0" x1="83" y1="23.9" x2="79.9" y2="42.9"/>
	<line class="st0" x1="70" y1="23.9" x2="70" y2="42.9"/>
	<line class="st0" x1="33.7" y1="24" x2="83" y2="24"/>
	<line class="st0" x1="36.8" y1="35.1" x2="81.2" y2="35.1"/>
	<circle class="st1" cx="78.2" cy="75.6" r="4.8"/>
	<circle class="st1" cx="46.9" cy="75.6" r="4.8"/>
</g>
</svg>
