<?xml version="1.0" encoding="utf-8"?>
<!-- Generator: Adobe Illustrator 22.1.0, SVG Export Plug-In . SVG Version: 6.00 Build 0)  -->
<svg version="1.1" id="Layer_1" xmlns="http://www.w3.org/2000/svg" xmlns:xlink="http://www.w3.org/1999/xlink" x="0px" y="0px"
	 viewBox="0 0 84 86.2" style="enable-background:new 0 0 84 86.2;" xml:space="preserve">
<style type="text/css">
	.st0{fill:none;stroke:#38D430;stroke-width:2;stroke-linecap:round;stroke-linejoin:round;stroke-miterlimit:10;}
	.st1{fill:#38D430;stroke:#38D430;stroke-width:2;stroke-miterlimit:10;}
	.st2{fill:none;stroke:#222222;stroke-width:2;stroke-linecap:round;stroke-miterlimit:10;}
</style>
<g>
	<g>
		<g>
			<line class="st0" x1="11.9" y1="46.3" x2="67.5" y2="46.3"/>
			<line class="st0" x1="39.7" y1="18.6" x2="39.7" y2="46.4"/>
			<path class="st0" d="M11.9,46.4c0-15.3,12.4-27.8,27.8-27.8c15.3,0,27.8,12.5,27.8,27.8"/>
			<path class="st0" d="M39.7,18.6c0,0-14.9,5.9-14.9,27.8"/>
			<path class="st0" d="M24.8,46.3"/>
			<path class="st0" d="M39.7,18.6c0,0,14.9,5.9,14.9,27.8"/>
			<path class="st0" d="M54.6,46.3"/>
			<path class="st0" d="M39.7,34.4c-15.3,0-19.3-8-19.3-8"/>
			<path class="st0" d="M59,26.4c0,0-4,8-19.3,8"/>
			<path class="st1" d="M51.7,32"/>
			<line class="st0" x1="39.7" y1="74.1" x2="39.7" y2="46.3"/>
			<path class="st0" d="M67.5,46.4c0,15.3-12.4,27.8-27.8,27.8c-15.3,0-27.8-12.4-27.8-27.8"/>
			<path class="st0" d="M39.7,74.1c0,0,14.9-5.9,14.9-27.8"/>
			<path class="st0" d="M54.6,46.4"/>
			<path class="st0" d="M39.7,74.1c0,0-14.9-5.9-14.9-27.8"/>
			<path class="st0" d="M24.8,46.4"/>
			<path class="st0" d="M59,66.3c0,0-4-8-19.3-8"/>
			<path class="st0" d="M20.4,66.3c0,0,4-8,19.3-8"/>
			<path class="st1" d="M27.7,60.7"/>
		</g>
	</g>
	<g>
		<g>
			<path class="st2" d="M33.8,3.5c-2.7,6-9,6.3-16.2,10.9C12,18,7.6,23.4,4.7,29.5c-4.6,9.7-5,21.3-0.9,31.2"/>
			<polyline class="st2" points="28.7,2.7 35.3,1.2 36.8,7.7 			"/>
		</g>
		<g>
			<path class="st2" d="M5.5,73c6.5-0.7,9.9,4.6,17.5,8.6c5.9,3.1,12.9,4.1,19.5,3.6c10.7-0.9,20.9-6.4,27.5-14.8"/>
			<polyline class="st2" points="7.3,77.7 2.8,72.8 7.7,68.2 			"/>
		</g>
		<g>
			<path class="st2" d="M79.8,62.7c-3.9-5.3-0.9-10.9-1.3-19.4c-0.3-6.7-2.9-13.2-6.7-18.7c-6.1-8.8-16-14.9-26.6-16.4"/>
			<polyline class="st2" points="83,58.7 81,65.1 74.6,63.2 			"/>
		</g>
	</g>
</g>
</svg>
