<?xml version="1.0" encoding="utf-8"?>
<!-- Generator: Adobe Illustrator 22.1.0, SVG Export Plug-In . SVG Version: 6.00 Build 0)  -->
<svg version="1.1" id="Layer_1" xmlns="http://www.w3.org/2000/svg" xmlns:xlink="http://www.w3.org/1999/xlink" x="0px" y="0px"
	 viewBox="0 0 57 87" style="enable-background:new 0 0 57 87;" xml:space="preserve">
<style type="text/css">
	.st0{fill:none;stroke:#222222;stroke-width:2;stroke-miterlimit:10;}
	.st1{fill:#38D430;}
	.st2{fill:none;stroke:#222222;stroke-width:2;stroke-linecap:round;stroke-miterlimit:10;}
</style>
<g>
	<path class="st0" d="M32.9,6.5V6.2c0-2.4-2-4.4-4.4-4.4l0,0c-2.4,0-4.4,2-4.4,4.4v0.3"/>
	<path class="st1" d="M19.1,7.7v9.3c0,0.9,0.7,1.6,1.6,1.6h0.6c0.8,0,1.5-0.6,1.6-1.4l0-0.2c0.4-2.8,2.7-4.9,5.5-4.9l0,0
		c2.8,0,5.2,2.1,5.5,4.9l0,0.2c0.1,0.8,0.8,1.4,1.6,1.4l0,0c0.9,0,1.6-0.7,1.6-1.6V7.7c0-0.7-0.6-1.2-1.2-1.2H20.3
		C19.7,6.5,19.1,7,19.1,7.7z"/>
	<path class="st0" d="M19.1,10.2H5.4C3,10.2,1,12.2,1,14.6v66.3c0,2.4,1.9,4.3,4.3,4.3h46.2c2.4,0,4.3-1.9,4.3-4.3V14.6
		c0-2.4-1.9-4.3-4.3-4.3H37.3"/>
	<polyline class="st0" points="17.6,16.6 7.5,16.6 7.5,78.8 40,78.8 49.5,69.3 49.5,16.6 39.4,16.6 	"/>
	<polyline class="st0" points="23.6,43.1 18.5,48.5 16,46 	"/>
	<line class="st0" x1="16.3" y1="33.5" x2="22.4" y2="27.5"/>
	<line class="st0" x1="22.4" y1="33.5" x2="16.3" y2="27.5"/>
	<line class="st0" x1="16.3" y1="64.7" x2="22.4" y2="58.7"/>
	<line class="st0" x1="22.4" y1="64.7" x2="16.3" y2="58.7"/>
	<line class="st0" x1="26.7" y1="33.5" x2="44.2" y2="33.5"/>
	<line class="st0" x1="26.7" y1="48.8" x2="44.2" y2="48.8"/>
	<polyline class="st2" points="38,74.9 38,67.3 45.7,67.3 	"/>
</g>
</svg>
