<?xml version="1.0" encoding="utf-8"?>
<!-- Generator: Adobe Illustrator 22.1.0, SVG Export Plug-In . SVG Version: 6.00 Build 0)  -->
<svg version="1.1" id="Layer_1" xmlns="http://www.w3.org/2000/svg" xmlns:xlink="http://www.w3.org/1999/xlink" x="0px" y="0px"
	 viewBox="0 0 75 73" style="enable-background:new 0 0 75 73;" xml:space="preserve">
<style type="text/css">
	.st0{fill:none;stroke:#222222;stroke-width:2;stroke-linecap:round;stroke-linejoin:round;stroke-miterlimit:10;}
	.st1{fill:#222222;}
	.st2{fill:#38D430;}
</style>
<g>
	<g>
		<path class="st0" d="M56.8,62.4V51V0H0v62.4c0,5.4,4.4,9.8,9.8,9.8h40h7.1h9.8C61.2,72.2,56.8,67.8,56.8,62.4z"/>
		<path class="st0" d="M56.8,30h17.7v34.3c0,4.3-3.5,7.8-7.8,7.8"/>
		<rect class="st0" width="21.7" height="30"/>
		<g>
			<line class="st0" x1="28.5" y1="30" x2="50" y2="30"/>
			<line class="st0" x1="28.5" y1="21.5" x2="50" y2="21.5"/>
			<line class="st0" x1="28.5" y1="13" x2="50" y2="13"/>
		</g>
		<line class="st0" x1="6.8" y1="38.6" x2="50" y2="38.6"/>
		<g>
			<path class="st1" d="M15.2,56.9h-1.6l-4.5-8.5l0,0v8.5H7.4V45.3H9l4.5,8.5l0,0v-8.5h1.6V56.9z"/>
			<path class="st1" d="M24.6,51.5h-3.9v4.1h4.6v1.2H19V45.3h6.2v1.2h-4.6v3.7h3.9V51.5z"/>
			<path class="st1" d="M36.3,53.5L36.3,53.5l1.6-8.2h1.7l-2.4,11.6h-1.5l-2-8.2h0l-2,8.2H30l-2.4-11.6h1.7l1.5,8.2h0l1.9-8.2h1.4
				L36.3,53.5z"/>
			<path class="st1" d="M47.8,54c0-0.5-0.2-1-0.5-1.3c-0.3-0.3-0.8-0.7-1.6-0.9c-1.1-0.3-1.9-0.8-2.5-1.3c-0.6-0.5-0.9-1.2-0.9-2.1
				c0-0.9,0.3-1.7,1-2.3c0.6-0.6,1.5-0.9,2.5-0.9c1.1,0,1.9,0.3,2.6,1c0.6,0.7,1,1.5,0.9,2.5l0,0h-1.6c0-0.7-0.2-1.2-0.5-1.6
				c-0.4-0.4-0.8-0.6-1.4-0.6c-0.6,0-1,0.2-1.3,0.5c-0.3,0.4-0.5,0.8-0.5,1.4c0,0.5,0.2,0.9,0.5,1.2c0.3,0.3,0.9,0.6,1.7,0.9
				c1.1,0.3,1.9,0.8,2.4,1.4c0.6,0.6,0.8,1.3,0.8,2.2c0,0.9-0.3,1.7-1,2.3c-0.6,0.6-1.5,0.8-2.6,0.8c-1,0-1.9-0.3-2.7-0.9
				c-0.8-0.6-1.1-1.5-1.1-2.6l0,0h1.6c0,0.8,0.2,1.4,0.6,1.8c0.4,0.4,0.9,0.6,1.5,0.6c0.6,0,1.1-0.2,1.4-0.5
				C47.6,55,47.8,54.5,47.8,54z"/>
		</g>
		
			<rect x="0.1" y="8.4" transform="matrix(-1.836970e-16 1 -1 -1.836970e-16 25.8619 4.1705)" class="st2" width="21.5" height="13.1"/>
	</g>
</g>
</svg>
