<?xml version="1.0" encoding="utf-8"?>
<!-- Generator: Adobe Illustrator 22.1.0, SVG Export Plug-In . SVG Version: 6.00 Build 0)  -->
<svg version="1.1" id="Layer_1" xmlns="http://www.w3.org/2000/svg" xmlns:xlink="http://www.w3.org/1999/xlink" x="0px" y="0px"
	 viewBox="0 0 105 61" style="enable-background:new 0 0 105 61;" xml:space="preserve">
<style type="text/css">
	.st0{fill:none;stroke:#222222;stroke-width:2;stroke-miterlimit:10;}
	.st1{fill:#38D430;}
	.st2{fill:none;stroke:#222222;stroke-width:2;stroke-linecap:round;stroke-miterlimit:10;}
</style>
<path class="st0" d="M77.7,33.4c-12.1,8.1-21.2-5.3-21.2-5.3c-4.3-5.9-7.3,0.2-7.3,0.2c-2.3,5.5-5.5,5-7.4,4c-1-0.5-1.4-1.6-1.1-2.6
	l1.4-5c0.6-2.2,2.2-4,4.3-4.9l5.5-2.4c2-0.9,3.8-0.7,6.2-0.2l14.3,3.4L77.7,33.4z"/>
<path class="st0" d="M80.7,40.4l-9.4,3l-5.9-8.2c0,0,6.9,2.8,12.3-1.8L80.7,40.4z"/>
<polygon class="st1" points="-0.3,1.5 -0.3,44.1 8,47.4 22.9,11 "/>
<polyline class="st0" points="21.7,13.9 32.4,18.4 22.9,40.4 12.5,36.4 "/>
<polygon class="st1" points="105,3.8 105,46.4 96.7,49.8 81.7,13.3 "/>
<polyline class="st0" points="82.9,16.2 72.3,20.7 81.7,42.8 92.1,38.7 "/>
<path class="st2" d="M64.8,35.2l8.1,10.1c0.6,0.8,0.8,1.8,0.5,2.8h0c-0.8,2.3-3.8,3-5.5,1.2L56.7,37.5"/>
<path class="st2" d="M51.8,43l9.3,9.8c2.5,2.6,7,1.7,8.1-1.8c0-0.1,0-0.1,0.1-0.2"/>
<path class="st2" d="M47.3,47.6l7.7,8.6c0.9,1,2,1.6,3.3,1.7c1.5,0.1,3.3-0.5,4.9-3"/>
<path class="st0" d="M32.4,18.4c0,0,8.5-0.7,15.5,0.9"/>
<path class="st0" d="M24.6,36.6c0,0,10.7,7.4,22.3,18.8l3.6,3.5c1.8,1.7,4.9,0.8,5.3-1.7c0,0,0-0.1,0-0.1"/>
<path class="st0" d="M30.7,41.2l-1,1.1c-0.9,1-0.8,2.6,0.3,3.5l0,0c1.1,0.9,2.8,0.8,3.8-0.3l0.9-1.1"/>
<path class="st0" d="M39.7,48.6l-2.1,2.3c-1.1,1.2-3,1.3-4.2,0.2l0,0c-1.3-1.1-1.4-3-0.3-4.3l1.9-2.2"/>
<path class="st0" d="M39.7,48.6l-1.4,1.5c-1.1,1.2-1,3.1,0.2,4.3l0,0c1.2,1.1,3.1,1.1,4.3-0.1l1.4-1.5"/>
<path class="st0" d="M48.3,56.7l-0.7,0.8c-1.1,1.1-2.9,1.2-4,0.1l0,0c-1.1-1.1-1.2-2.9-0.1-4l0.5-0.6"/>
</svg>
