<?xml version="1.0" encoding="utf-8"?>
<!-- Generator: Adobe Illustrator 22.1.0, SVG Export Plug-In . SVG Version: 6.00 Build 0)  -->
<svg version="1.1" id="Layer_1" xmlns="http://www.w3.org/2000/svg" xmlns:xlink="http://www.w3.org/1999/xlink" x="0px" y="0px"
	 viewBox="0 0 77 82" style="enable-background:new 0 0 77 82;" xml:space="preserve">
<style type="text/css">
	.st0{fill:#38D430;}
	.st1{fill:#222222;}
</style>
<g>
	<g>
		<g>
			<path class="st0" d="M38.7,28.7C38.7,28.7,38.6,28.7,38.7,28.7l-0.1,16.9h0.1c2,0,3.6,1.6,3.6,3.6v0.1c0,0.5-0.1,1-0.3,1.4
				s-0.5,0.8-0.8,1.2c-0.3,0.3-0.7,0.6-1.2,0.8c-0.4,0.2-0.9,0.3-1.4,0.3h-0.1c-2-0.1-3.6-1.7-3.6-3.7v-0.1H18.1v0.1
				c0,11.4,9.2,20.6,20.6,20.6c4.6,0,8.9-1.5,12.3-4.1c0.5-0.4,1-0.8,1.5-1.3c0.2-0.2,0.5-0.4,0.7-0.7c1.4-1.4,2.6-3,3.5-4.7
				c0.2-0.3,0.3-0.6,0.5-0.9c1.3-2.7,2-5.7,2-8.9l0,0C59.3,37.9,50.1,28.7,38.7,28.7z"/>
		</g>
		<g>
			<path class="st1" d="M38.7,80.9c-17.4,0-31.6-14.2-31.6-31.6s14.2-31.6,31.6-31.6s31.6,14.2,31.6,31.6S56.1,80.9,38.7,80.9z
				 M38.7,19.7C22.4,19.7,9.1,33,9.1,49.3s13.3,29.6,29.6,29.6s29.6-13.3,29.6-29.6S55,19.7,38.7,19.7z"/>
		</g>
		<g>
			<path class="st1" d="M75,50.3c-0.6,0-1-0.4-1-1C74,29.9,58.1,14,38.7,14S3.4,29.9,3.4,49.3c0,0.6-0.4,1-1,1s-1-0.4-1-1
				C1.4,28.8,18.2,12,38.7,12S76,28.8,76,49.3C76,49.9,75.5,50.3,75,50.3z"/>
		</g>
		<g>
			<path class="st1" d="M45.4,12.9h-2V9c0-0.7-0.6-1.3-1.3-1.3h-6.8C34.6,7.7,34,8.2,34,9v3.9h-2V9c0-1.8,1.5-3.3,3.3-3.3h6.8
				c1.8,0,3.3,1.5,3.3,3.3C45.4,9,45.4,12.9,45.4,12.9z"/>
		</g>
		<g>
			<rect x="63.1" y="19.8" transform="matrix(0.7071 -0.7071 0.7071 0.7071 4.9403 53.5989)" class="st1" width="8.1" height="2"/>
		</g>
		<g>
			<path class="st1" d="M73.1,21.9c-0.3,0-0.5-0.1-0.7-0.3l-6-6c-0.4-0.4-0.4-1,0-1.4s1-0.4,1.4,0l6,6c0.4,0.4,0.4,1,0,1.4
				C73.6,21.8,73.3,21.9,73.1,21.9z"/>
		</g>
		<g>
			<rect x="9.2" y="16.7" transform="matrix(0.7071 -0.7071 0.7071 0.7071 -11.7004 13.2695)" class="st1" width="2" height="8.1"/>
		</g>
		<g>
			<path class="st1" d="M4.3,21.9c-0.3,0-0.5-0.1-0.7-0.3c-0.4-0.4-0.4-1,0-1.4l6-6c0.4-0.4,1-0.4,1.4,0s0.4,1,0,1.4l-6,6
				C4.8,21.8,4.6,21.9,4.3,21.9z"/>
		</g>
		<g>
			<path class="st1" d="M46.5,3.4H30.9c-0.6,0-1-0.4-1-1s0.4-1,1-1h15.6c0.6,0,1,0.4,1,1S47,3.4,46.5,3.4z"/>
		</g>
		<g>
			<path class="st1" d="M38.7,54c-2.6,0-4.7-2.1-4.7-4.7c0-2.6,2.1-4.7,4.7-4.7c2.6,0,4.7,2.1,4.7,4.7S41.3,54,38.7,54z M38.7,46.6
				c-1.5,0-2.7,1.2-2.7,2.7s1.2,2.7,2.7,2.7s2.7-1.2,2.7-2.7S40.2,46.6,38.7,46.6z"/>
		</g>
		<g>
			<path class="st1" d="M38.7,46.6c-0.6,0-1-0.4-1-1V29.8c0-0.6,0.4-1,1-1s1,0.4,1,1v15.8C39.7,46.2,39.2,46.6,38.7,46.6z"/>
		</g>
	</g>
</g>
</svg>
