<svg xmlns="http://www.w3.org/2000/svg" width="865" height="689">
    <path fill="#E8FFEB" fill-rule="evenodd" d="M835.36 347.6c-15.159 16.073-33.843 28.034-42.895 46.088-92.847 152.187-233.277 315.113-418.754 293.35-6.719-2.073-13.464-4.243-20.222-6.252-6.759-2.009-13.532-3.858-20.308-5.291a366.332 366.332 0 0 1-14.676-3.99c-8.715-.731-17.638-1.579-26.617-2.611-125.696-14.453-232.747-81.548-276.745-187.32a267.319 267.319 0 0 1-8.309-22.854 261.807 261.807 0 0 1-6.099-23.177C-13.282 207.528 172.927 18.465 388.017.941c8.604-.7 17.254-1.127 26.214-.859 77.963 18.15 162.193 27.183 238.849 56.698 7.666 2.952 15.283 6.098 23.099 9.394 36.795 16.008 75.841 36.019 108.325 62.059 6.497 5.208 12.73 10.658 18.635 16.365 39.953 33.563 65.522 87.433 61.425 137.66-.585 7.176-1.776 14.277-3.616 21.234-6.003 12.887-8.924 28.615-18.659 37.021-2.355 2.426-4.667 4.768-6.929 7.087z" opacity=".502"/>
</svg>
