<svg 
 xmlns="http://www.w3.org/2000/svg"
 xmlns:xlink="http://www.w3.org/1999/xlink"
 width="979px" height="862px">
<path fill-rule="evenodd"  opacity="0.451" fill="rgb(217, 255, 222)"
 d="M910.545,600.076 C888.756,613.530 864.781,620.711 848.670,638.875 C695.512,785.647 488.529,927.087 302.055,830.072 C295.770,825.017 289.494,819.840 283.146,814.848 C276.797,809.856 270.374,805.052 263.797,800.743 C259.185,797.455 254.532,793.993 249.875,790.350 C241.004,786.139 231.961,781.711 222.926,777.042 C96.445,711.649 8.819,590.333 1.484,446.810 C0.961,436.556 0.855,426.369 1.155,416.258 C1.455,406.147 2.160,396.112 3.260,386.160 C72.193,107.680 336.756,-47.554 568.685,13.732 C577.962,16.182 587.188,18.980 596.483,22.731 C671.564,74.291 756.559,117.329 826.101,182.007 C833.055,188.474 839.887,195.155 846.874,202.094 C879.577,235.342 913.174,274.248 937.680,317.863 C942.582,326.586 947.119,335.498 951.215,344.595 C980.795,400.079 987.844,474.384 965.127,532.980 C961.881,541.352 958.029,549.402 953.547,557.031 C942.528,570.169 933.696,587.892 920.407,594.238 C917.050,596.245 913.767,598.165 910.545,600.076 Z"/>
</svg>