<svg xmlns="http://www.w3.org/2000/svg" width="1099" height="969">
    <path fill="#D9FFDE" fill-rule="evenodd" d="M1022.6 674.707c-24.474 15.116-51.402 23.184-69.498 43.593-172.028 164.911-404.511 323.831-613.96 214.826-7.058-5.679-14.108-11.496-21.239-17.105s-14.344-11.007-21.732-15.848a440.308 440.308 0 0 1-15.638-11.678c-9.963-4.732-20.12-9.707-30.268-14.953C108.201 800.068 9.779 663.759 1.541 502.499a426.149 426.149 0 0 1-.37-34.328 421.407 421.407 0 0 1 2.364-33.817C80.961 121.458 378.118-52.961 638.622 15.9c10.42 2.753 20.782 5.896 31.223 10.111 84.33 57.932 179.797 106.288 257.907 178.959 7.811 7.267 15.484 14.774 23.332 22.57 36.732 37.357 74.469 81.071 101.994 130.076 5.505 9.801 10.602 19.814 15.203 30.036 33.224 62.341 41.141 145.828 15.625 211.666-3.645 9.407-7.973 18.451-13.006 27.024-12.377 14.761-22.297 34.674-37.223 41.805-3.771 2.255-7.459 4.412-11.077 6.56z" opacity=".451"/>
</svg>
