<svg 
 xmlns="http://www.w3.org/2000/svg"
 xmlns:xlink="http://www.w3.org/1999/xlink"
 width="739px" height="615px">
<path fill-rule="evenodd"  opacity="0.302" fill="rgb(203, 251, 246)"
 d="M13.490,358.053 C23.482,341.920 37.380,329.007 41.637,311.864 C91.973,165.330 181.687,3.422 348.041,-0.003 C354.328,1.013 360.655,2.113 366.962,3.067 C373.270,4.023 379.558,4.833 385.762,5.275 C390.216,5.754 394.763,6.329 399.383,7.019 C407.143,6.598 415.104,6.256 423.153,6.073 C535.831,3.487 642.860,49.937 702.642,138.466 C706.913,144.791 710.868,151.219 714.514,157.742 C718.159,164.263 721.493,170.876 724.523,177.575 C782.817,378.338 658.407,569.070 474.131,611.015 C466.759,612.695 459.293,614.135 451.414,614.993 C379.670,608.440 304.297,610.753 231.399,593.944 C224.109,592.265 216.823,590.404 209.331,588.438 C173.970,578.735 135.832,565.753 102.208,546.615 C95.483,542.787 88.938,538.713 82.630,534.367 C40.963,509.466 7.756,464.766 1.188,419.659 C0.250,413.217 -0.144,406.764 0.057,400.360 C2.696,388.179 2.070,373.855 8.873,365.194 C10.438,362.752 11.984,360.389 13.490,358.053 Z"/>
</svg>