<?xml version="1.0" encoding="utf-8"?>
<!-- Generator: Adobe Illustrator 22.1.0, SVG Export Plug-In . SVG Version: 6.00 Build 0)  -->
<svg version="1.1" id="Layer_1" xmlns="http://www.w3.org/2000/svg" xmlns:xlink="http://www.w3.org/1999/xlink" x="0px" y="0px"
	 viewBox="0 0 318 72" style="enable-background:new 0 0 318 72;" xml:space="preserve">
<style type="text/css">
	.st0{fill:#010101;}
	.st1{font-family:'Nexa-Light';}
	.st2{font-size:34.3732px;}
	.st3{font-family:'NexaBold';}
	.st4{fill:#87E275;}
	.st5{fill:#38D430;}
</style>
<text transform="matrix(1 0 0 1 139.2256 30.2168)"><tspan x="0" y="0" class="st0 st1 st2">e</tspan><tspan x="19.5" y="0" class="st0 st1 st2">x</tspan><tspan x="35.7" y="0" class="st0 st1 st2">p</tspan><tspan x="57.5" y="0" class="st0 st1 st2">e</tspan><tspan x="77.5" y="0" class="st0 st1 st2">r</tspan><tspan x="92.3" y="0" class="st0 st1 st2">t</tspan></text>
<text transform="matrix(1 0 0 1 139.2256 61.668)"><tspan x="0" y="0" class="st0 st3 st2">c</tspan><tspan x="15.7" y="0" class="st0 st3 st2">o</tspan><tspan x="35.4" y="0" class="st0 st3 st2">n</tspan><tspan x="55.4" y="0" class="st0 st3 st2">su</tspan><tspan x="92.2" y="0" class="st0 st3 st2">l</tspan><tspan x="99.5" y="0" class="st0 st3 st2">t</tspan><tspan x="113.1" y="0" class="st0 st3 st2">i</tspan><tspan x="120.9" y="0" class="st0 st3 st2">n</tspan><tspan x="140.9" y="0" class="st0 st3 st2">g</tspan></text>
<path class="st4" d="M110.4,57.5H99.5c-0.5,0-0.8-0.4-0.8-0.8V18.1c0-0.5,0.4-0.8,0.8-0.8h10.9c0.5,0,0.8,0.4,0.8,0.8v38.5
	C111.3,57.1,110.9,57.5,110.4,57.5"/>
<path class="st5" d="M125.1,32v10.9c0,0.5-0.4,0.8-0.8,0.8H85.7c-0.5,0-0.8-0.4-0.8-0.8V32c0-0.5,0.4-0.8,0.8-0.8h38.5
	C124.7,31.1,125.1,31.5,125.1,32"/>
<path class="st5" d="M39.7,35L11.4,7.6c-0.7-0.7-1.9-0.2-1.9,0.8V31v35.4c0,0.6,0.5,1.1,1.1,1.1h10.8c0.6,0,1.1-0.5,1.1-1.1v-30
	l16.3,15.8c0.5,0.4,1.2,0.4,1.7,0l16.3-15.8v30c0,0.6,0.5,1.1,1.1,1.1h10.8c0.6,0,1.1-0.5,1.1-1.1V31V8.4c0-1-1.2-1.5-1.9-0.8
	L39.7,35z"/>
</svg>
