<?xml version="1.0" encoding="utf-8"?>
<!-- Generator: Adobe Illustrator 22.1.0, SVG Export Plug-In . SVG Version: 6.00 Build 0)  -->
<svg version="1.1" id="Layer_1" xmlns="http://www.w3.org/2000/svg" xmlns:xlink="http://www.w3.org/1999/xlink" x="0px" y="0px"
	 viewBox="0 0 300 73" style="enable-background:new 0 0 300 73;" xml:space="preserve">
<style type="text/css">
	.st0{font-family:'Nexa-Light';}
	.st1{font-size:33.0035px;}
	.st2{font-family:'NexaBold';}
	.st3{fill:#87E275;}
	.st4{fill:#38D430;}
</style>
<g>
	<text transform="matrix(1 0 0 1 136.5713 30.4727)"><tspan x="0" y="0" class="st0 st1">p</tspan><tspan x="20.7" y="0" class="st0 st1">r</tspan><tspan x="33.4" y="0" class="st0 st1">em</tspan><tspan x="83.3" y="0" class="st0 st1">i</tspan><tspan x="89.9" y="0" class="st0 st1">u</tspan><tspan x="109.5" y="0" class="st0 st1">m</tspan></text>
	<text transform="matrix(1 0 0 1 136.5713 60.6719)"><tspan x="0" y="0" class="st2 st1">t</tspan><tspan x="13.1" y="0" class="st2 st1">r</tspan><tspan x="26.9" y="0" class="st2 st1">a</tspan><tspan x="46.9" y="0" class="st2 st1">ini</tspan><tspan x="81.1" y="0" class="st2 st1">n</tspan><tspan x="100.3" y="0" class="st2 st1">g</tspan></text>
	<path class="st3" d="M108.9,56.7H98.5c-0.4,0-0.8-0.4-0.8-0.8v-37c0-0.4,0.4-0.8,0.8-0.8h10.5c0.4,0,0.8,0.4,0.8,0.8v37
		C109.7,56.3,109.4,56.7,108.9,56.7"/>
	<path class="st4" d="M123,32.1v10.5c0,0.4-0.4,0.8-0.8,0.8h-37c-0.4,0-0.8-0.4-0.8-0.8V32.1c0-0.4,0.4-0.8,0.8-0.8h37
		C122.6,31.3,123,31.7,123,32.1"/>
	<path class="st4" d="M41,35.1L13.9,8.7C13.2,8,12,8.5,12,9.5v21.8v34c0,0.6,0.5,1.1,1.1,1.1h10.4c0.6,0,1.1-0.5,1.1-1.1V36.5
		l15.6,15.2c0.4,0.4,1.1,0.4,1.6,0l15.6-15.2v28.8c0,0.6,0.5,1.1,1.1,1.1h10.4c0.6,0,1.1-0.5,1.1-1.1v-34V9.5c0-1-1.2-1.4-1.8-0.8
		L41,35.1z"/>
</g>
</svg>
