<?xml version="1.0" encoding="utf-8"?>
<!-- Generator: Adobe Illustrator 22.1.0, SVG Export Plug-In . SVG Version: 6.00 Build 0)  -->
<svg version="1.1" id="Layer_1" xmlns="http://www.w3.org/2000/svg" xmlns:xlink="http://www.w3.org/1999/xlink" x="0px" y="0px"
	 viewBox="0 0 369 50" style="enable-background:new 0 0 369 50;" xml:space="preserve">
<style type="text/css">
	.st0{fill:#38D430;}
	.st1{fill:#87E275;}
</style>
<g>
	<path class="st0" d="M138.2,0.4c-13.6,0-24.7,11-24.7,24.7s11,24.7,24.7,24.7c13.6,0,24.7-11,24.7-24.7S151.9,0.4,138.2,0.4z
		 M138.2,39.2c-7.8,0-14.2-6.3-14.2-14.2s6.3-14.2,14.2-14.2c7.8,0,14.2,6.3,14.2,14.2S146,39.2,138.2,39.2z"/>
	<path class="st0" d="M82.7,0.4C69.1,0.4,58,11.4,58,25s11,24.7,24.7,24.7s24.7-11,24.7-24.7S96.3,0.4,82.7,0.4z M82.7,39.2
		c-7.8,0-14.2-6.3-14.2-14.2s6.3-14.2,14.2-14.2c7.8,0,14.2,6.3,14.2,14.2S90.5,39.2,82.7,39.2z"/>
	<path class="st0" d="M343.9,0.4c-13.6,0-24.7,11-24.7,24.7s11,24.7,24.7,24.7c13.6,0,24.7-11,24.7-24.7S357.5,0.4,343.9,0.4z
		 M343.9,39.2c-7.8,0-14.2-6.3-14.2-14.2s6.3-14.2,14.2-14.2c7.8,0,14.2,6.3,14.2,14.2S351.7,39.2,343.9,39.2z"/>
	<path class="st0" d="M288.3,0.4c-13.6,0-24.7,11-24.7,24.7s11,24.7,24.7,24.7S313,38.7,313,25S302,0.4,288.3,0.4z M288.4,39.2
		c-7.8,0-14.2-6.3-14.2-14.2s6.3-14.2,14.2-14.2c7.8,0,14.2,6.3,14.2,14.2S296.2,39.2,288.4,39.2z"/>
	<path class="st0" d="M260.7,0.4h-12.2c-0.2,0-0.3,0.1-0.4,0.2l-11.2,17.6L225.8,0.6c-0.1-0.1-0.2-0.2-0.4-0.2h-12.2
		c-0.4,0-0.6,0.4-0.4,0.7l15,23.7c0.1,0.2,0.1,0.4,0,0.5l-15,23.7c-0.2,0.3,0,0.7,0.4,0.7h12.2c0.2,0,0.3-0.1,0.4-0.2l11.2-17.6
		l11.2,17.6c0.1,0.1,0.2,0.2,0.4,0.2h12.2c0.4,0,0.6-0.4,0.4-0.7l-15-23.7c-0.1-0.2-0.1-0.4,0-0.5l15-23.7
		C261.3,0.8,261.1,0.4,260.7,0.4z"/>
	<path class="st1" d="M195.5,41.5h-8.3c-0.6,0-1-0.4-1-1V9.6c0-0.6,0.4-1,1-1h8.3c0.6,0,1,0.4,1,1v30.9
		C196.5,41,196,41.5,195.5,41.5z"/>
	<path class="st0" d="M174.9,29.2v-8.3c0-0.6,0.4-1,1-1h30.9c0.6,0,1,0.4,1,1v8.3c0,0.6-0.4,1-1,1h-30.9
		C175.3,30.2,174.9,29.7,174.9,29.2z"/>
	<path class="st0" d="M25.1,23.1L2,0.6C1.4,0,0.4,0.4,0.4,1.2v18.6v29c0,0.5,0.4,0.9,0.9,0.9h8.8h0c0.5,0,0.9-0.4,0.9-0.9V24.2
		l13.3,13c0.4,0.4,1,0.4,1.4,0l13.3-13v24.6c0,0.5,0.4,0.9,0.9,0.9l0,0h8.8c0.5,0,0.9-0.4,0.9-0.9v-29V1.2c0-0.8-1-1.2-1.6-0.7
		L25.1,23.1z"/>
</g>
</svg>
