<svg xmlns="http://www.w3.org/2000/svg" width="873" height="688.504" viewBox="0 0 873 688.504">
  <defs>
    <style>
      .cls-1 {
        fill: #f4f6ff;
        fill-rule: evenodd;
        opacity: 0.5;
      }
    </style>
  </defs>
  <path id="_-e-bubble_m.svg" data-name="-e-bubble_m.svg" class="cls-1" d="M16426.2,828.033c16.2-15.09,35.6-25.854,45.8-43.3,102.2-146.054,252.6-299.837,436.3-266.467,6.6,2.491,13.2,5.08,19.8,7.51s13.2,4.7,19.9,6.556q7.2,2.259,14.4,4.9c8.7,1.278,17.5,2.684,26.4,4.278,124.5,22.319,227.2,96.006,264.4,204.332q4.05,11.607,6.9,23.331c1.9,7.81,3.4,15.65,4.6,23.515-0.3,228.442-198,405.442-413.8,409.422a236.141,236.141,0,0,1-26.2-.79c-76.7-23.01-160.2-37.32-234.8-71.59-7.5-3.43-14.9-7.05-22.5-10.83-35.7-18.29-73.4-40.71-104.2-68.74-6.1-5.61-12-11.44-17.5-17.5-37.8-36.009-59.9-91.378-52.7-141.249a125.232,125.232,0,0,1,4.9-20.965c6.8-12.484,10.7-28,21-35.776C16421.4,832.4,16423.8,830.205,16426.2,828.033Z" transform="translate(-16391.7 -513.656)"/>
</svg>
