<?xml version="1.0" encoding="utf-8"?>
<!-- Generator: Adobe Illustrator 22.1.0, SVG Export Plug-In . SVG Version: 6.00 Build 0)  -->
<svg version="1.1" id="Layer_1" xmlns="http://www.w3.org/2000/svg" xmlns:xlink="http://www.w3.org/1999/xlink" x="0px" y="0px"
	 viewBox="0 0 147.7 179.3" style="enable-background:new 0 0 147.7 179.3;" xml:space="preserve">
<style type="text/css">
	.st0{fill:none;stroke:#222222;stroke-width:5.41;stroke-miterlimit:10;}
	.st1{fill:none;stroke:#38D430;stroke-width:5.41;stroke-linecap:round;stroke-linejoin:round;stroke-miterlimit:10;}
	.st2{fill:none;stroke:#38D430;stroke-width:5.41;stroke-miterlimit:10;}
</style>
<g>
	<g>
		<path class="st0" d="M109.5,179.3v-35.9c0,0-0.2-13.2,8.5-24.5c3.4-4.4,6.2-9.3,8-14.6c5.2-15.9,8.2-47.1-26-65.3
			c0,0-38.6-19.9-68.1,7.1c-5.5,5-9.5,11.4-11.5,18.5C19,69.9,18,77,19,85.6c0.1,1,0.3,2,0.5,2.9c0.4,2.3,1,8.8-3.1,15l-7.9,11.4
			c0,0-2.3,5,3.5,6.1c0,0,1.8,0.2,3.2,0.7c0.9,0.4,1.1,1.5,0.5,2.2c-0.9,1-1.7,2.7,0.8,4c0.7,0.4,1,1.3,0.6,2
			c-0.8,1.4-1.2,3.4,2.2,4.4c0.7,0.2,1.2,0.9,1,1.7c-0.8,4.1-2.2,16.2,8.9,16l9.2-0.9c6.5-0.6,12.4,3.8,13.6,10.2
			c0.7,4.2,1.3,10,1.3,17.9"/>
		<g>
			<path class="st1" d="M105,81c2.2-1.9,3.2-5,2.2-8s-3.6-4.9-6.5-5.2c1.2-2.7,0.8-5.9-1.2-8.2c-2.1-2.3-5.3-3-8-2.1
				c0-2.9-1.6-5.7-4.5-7c-2.8-1.3-6-0.6-8.2,1.4c-1.2-2.7-3.8-4.6-6.9-4.6s-5.8,1.9-6.9,4.6c-2.1-2-5.4-2.6-8.2-1.4
				c-2.8,1.3-4.5,4.1-4.5,7c-2.8-0.9-6-0.2-8,2.1c-2.1,2.3-2.5,5.6-1.2,8.2c-2.9,0.3-5.5,2.2-6.5,5.2c-1,3,0,6.1,2.2,8
				c-2.6,1.4-4.1,4.3-3.8,7.4c0.3,3.1,2.5,5.6,5.3,6.4c-1.8,2.3-2,5.6-0.5,8.3c1.6,2.7,4.5,4.1,7.4,3.7c-0.6,2.9,0.4,5.9,2.9,7.8
				c2.5,1.8,5.8,1.9,8.3,0.4c0.6,2.9,2.8,5.3,5.8,5.9c3,0.6,6-0.6,7.7-3c1.7,2.4,4.7,3.7,7.7,3c3-0.6,5.3-3,5.8-5.9
				c2.5,1.5,5.8,1.5,8.3-0.4c2.5-1.8,3.6-4.9,2.9-7.8c2.9,0.3,5.9-1,7.4-3.7c1.6-2.7,1.3-5.9-0.5-8.3c2.8-0.9,4.9-3.3,5.3-6.4
				C109.2,85.3,107.6,82.5,105,81z"/>
			<path class="st1" d="M50.9,93.2c3.9,0,7-3.1,7-7c0-1.1-0.3-2.1-0.7-3.1c1.4,0.3,2.8,0.3,4.4-0.4c2.3-1,4.1-3,4.6-5.4
				c0.3-1.5,0.2-2.9-0.3-4.1c0.2,0,0.3,0,0.5,0c0.3,0,0.7,0,1,0c6.9-0.6,8.8-9.7,3-13.5c-2.7-1.8-5.2-4.3-5.4-7.8"/>
			<path class="st1" d="M66.3,73.2c0,0-6.5-2.3-9-9.2"/>
			<path class="st1" d="M91.5,57.5c0,0-4.5,14.7-18,10.3"/>
			<path class="st1" d="M105,81c0,0-8.3-0.5-10.6,8.6c0,0-8.7-4.7-16.6,0.1c-1.7,1-3.1,2.5-4.3,4.1c-2.1,3-5,8.7-2.6,15.1"/>
			<path class="st1" d="M100.9,67.4c0,0-17.4,3.2-17,20.2"/>
			<path class="st1" d="M47.1,106.8c0,0,9.2-11.4,23.4-6.5"/>
			<path class="st1" d="M85.4,115c0,0-4.2-2.9-4.2-8.5c0-5,5.4-8.3,9.7-5.6c0,0,0.1,0.1,0.1,0.1"/>
			<path class="st1" d="M64.6,80.6c0,0,9.6,0.9,10.5,11.4"/>
			<path class="st1" d="M57.2,83.1c0,0-4.2-2-7.1-5.6"/>
		</g>
	</g>
	<line class="st2" x1="73.7" y1="16.4" x2="73.7" y2="0"/>
	<line class="st2" x1="51.3" y1="20.3" x2="45.3" y2="3.8"/>
	<line class="st2" x1="30.3" y1="30.4" x2="19.3" y2="17.3"/>
	<line class="st2" x1="16.9" y1="44.4" x2="1.4" y2="35.4"/>
	<line class="st2" x1="133" y1="47.8" x2="146.4" y2="40.1"/>
	<line class="st2" x1="118.5" y1="31.9" x2="129.1" y2="19.1"/>
	<line class="st2" x1="96.1" y1="21.6" x2="102.1" y2="5.2"/>
</g>
</svg>
