<?xml version="1.0" encoding="utf-8"?>
<!-- Generator: Adobe Illustrator 22.1.0, SVG Export Plug-In . SVG Version: 6.00 Build 0)  -->
<svg version="1.1" id="Layer_1" xmlns="http://www.w3.org/2000/svg" xmlns:xlink="http://www.w3.org/1999/xlink" x="0px" y="0px"
	 viewBox="0 0 84 79" style="enable-background:new 0 0 84 79;" xml:space="preserve">
<style type="text/css">
	.st0{fill:#38D430;}
	.st1{fill:#222222;}
</style>
<g>
	<path class="st0" d="M8.9,77.6v-2.1c-2.2-1.3-3.7-3.7-3.7-6.4c0-4.1,3.3-7.4,7.4-7.4l0,0V26H1.8v51.6L8.9,77.6L8.9,77.6z"/>
</g>
<g>
	<path class="st1" d="M68.1,67.2h-4.8c-0.6,0-1-0.5-1-1c0-0.6,0.5-1,1-1h4.8c0.6,0,1,0.5,1,1C69.1,66.8,68.6,67.2,68.1,67.2z"/>
</g>
<g>
	<path class="st1" d="M71.2,54.8h-7c-0.6,0-1-0.5-1-1c0-0.6,0.5-1,1-1h7c0.6,0,1,0.5,1,1C72.3,54.3,71.8,54.8,71.2,54.8z"/>
</g>
<g>
	<path class="st1" d="M73.6,42.3H65c-0.6,0-1-0.5-1-1c0-0.6,0.5-1,1-1h8.6c0.6,0,1,0.5,1,1C74.6,41.8,74.2,42.3,73.6,42.3z"/>
</g>
<g>
	<path class="st1" d="M20.8,78.7h-19c-0.6,0-1-0.5-1-1V26c0-0.6,0.5-1,1-1h19c2,0,3.7,1.6,3.7,3.7V75C24.5,77,22.8,78.7,20.8,78.7z
		 M2.8,76.6h18c0.9,0,1.6-0.7,1.6-1.6V28.7c0-0.9-0.7-1.6-1.6-1.6h-18V76.6z"/>
</g>
<g>
	<path class="st1" d="M67.9,78.6c-23.6,0-44.4-3.7-44.6-3.7c-0.6-0.1-0.9-0.6-0.8-1.2c0.1-0.6,0.6-0.9,1.2-0.8
		c0.2,0,20.8,3.7,44.2,3.7c2.6,0,5.4-1.2,5.4-4.6c0-2.7-2.2-4.7-5.2-4.7c-0.6,0-1-0.5-1-1c0-0.6,0.5-1,1-1h2.7
		c2.9,0,5.2-2.1,5.4-4.9c0.1-1.5-0.4-2.8-1.4-3.9c-1-1.1-2.3-1.6-3.8-1.6c-0.6,0-1-0.5-1-1c0-0.6,0.5-1,1-1h2.7
		c2.9,0,5.2-2.1,5.4-4.9c0.1-1.5-0.4-2.8-1.4-3.9c-1-1.1-2.3-1.6-3.8-1.6c-0.6,0-1-0.5-1-1s0.5-1,1-1h2.7c2.9,0,5.2-2.1,5.4-4.9
		c0.1-1.5-0.4-2.8-1.4-3.9c-1-1.1-2.3-1.6-3.8-1.6H54c-1.2,0-2.4-0.5-3.1-1.5c-0.8-0.9-1.1-2.2-0.8-3.4c1.4-6.6,0.7-13.2-2.3-19.3
		c-1-2.1-3.1-2.5-4.5-2.2c-1.4,0.3-3.1,1.5-3.2,3.9C39.8,25.9,23.9,31,23.8,31.1c-0.5,0.2-1.1-0.1-1.3-0.7c-0.2-0.5,0.1-1.1,0.7-1.3
		c0.6-0.2,14.6-4.8,14.9-21.9c0.1-3.3,2.4-5.3,4.8-5.8c2.3-0.5,5.4,0.3,6.8,3.3c3.2,6.6,4,13.6,2.5,20.7c-0.1,0.6,0,1.2,0.4,1.6
		c0.4,0.5,0.9,0.7,1.5,0.7h22.7c2,0,3.9,0.8,5.3,2.3c1.4,1.5,2.1,3.4,1.9,5.4c-0.2,3.1-2.4,5.7-5.4,6.5c0.2,0.2,0.4,0.3,0.5,0.5
		c1.4,1.5,2.1,3.4,1.9,5.4c-0.2,3.1-2.4,5.7-5.4,6.5c0.2,0.2,0.4,0.3,0.5,0.5c1.4,1.5,2.1,3.4,1.9,5.4c-0.2,3-2.3,5.6-5.2,6.4
		c1.4,1.2,2.3,3,2.3,5C75.3,76.5,71.6,78.6,67.9,78.6z"/>
</g>
<g>
	<path class="st1" d="M12.6,73.8c-2.6,0-4.7-2.1-4.7-4.7s2.1-4.7,4.7-4.7c2.6,0,4.7,2.1,4.7,4.7S15.2,73.8,12.6,73.8z M12.6,66.5
		c-1.5,0-2.6,1.2-2.6,2.6s1.2,2.6,2.6,2.6s2.6-1.2,2.6-2.6S14.1,66.5,12.6,66.5z"/>
</g>
<g>
	<path class="st1" d="M12.6,78.7c-0.6,0-1-0.5-1-1v-4.9c0-0.6,0.5-1,1-1c0.6,0,1,0.5,1,1v4.9C13.7,78.2,13.2,78.7,12.6,78.7z"/>
</g>
</svg>
