<?xml version="1.0" encoding="utf-8"?>
<!-- Generator: Adobe Illustrator 22.1.0, SVG Export Plug-In . SVG Version: 6.00 Build 0)  -->
<svg version="1.1" id="Layer_1" xmlns="http://www.w3.org/2000/svg" xmlns:xlink="http://www.w3.org/1999/xlink" x="0px" y="0px"
	 viewBox="0 0 166 101" style="enable-background:new 0 0 166 101;" xml:space="preserve">
<style type="text/css">
	.st0{fill:none;stroke:#222222;stroke-width:4;stroke-linecap:round;stroke-linejoin:round;stroke-miterlimit:10;}
	.st1{fill:#38D430;}
</style>
<g>
	<circle class="st0" cx="82.5" cy="51.5" r="47.4"/>
	<path class="st0" d="M102.3,30.1c-5.2-4.8-12.1-7.7-19.8-7.7c-16.1,0-29.2,13.1-29.2,29.2c0,4.4,1,8.6,2.7,12.4"/>
	<path class="st0" d="M63.3,73.5c5.1,4.5,11.9,7.3,19.3,7.3c16.1,0,29.2-13.1,29.2-29.2c0-3.3-0.6-6.5-1.6-9.5"/>
	<polyline class="st0" points="53,76.5 68.1,57.5 75.5,62.6 85.2,49.3 92.8,55 113.8,27.4 	"/>
	<g>
		<path class="st1" d="M63.5,53.9c1.9-2.4,5.3-2.9,7.8-1.2l2.8,1.9l6.3-8.8c0.9-1.3,2.3-2.1,3.8-2.3c1.5-0.2,3.1,0.2,4.3,1.1l3,2.2
			l8.9-11.9c-4.5-4.9-10.9-8-18.1-8C69,27,58,38,58,51.5c0,2.7,0.5,5.3,1.3,7.7L63.5,53.9z"/>
		<path class="st1" d="M97.4,58.5c-1.9,2.5-5.5,3.1-8.1,1.2l-2.9-2.2L80.2,66c-1.8,2.6-5.4,3.2-8,1.4l-3-2.1l-3.3,4.2
			c4.4,4,10.2,6.5,16.6,6.5c13.5,0,24.5-11,24.5-24.5c0-1.8-0.2-3.5-0.6-5.1L97.4,58.5z"/>
	</g>
	<line class="st0" x1="108.4" y1="27" x2="113.8" y2="27.4"/>
	<line class="st0" x1="113.8" y1="27.4" x2="115" y2="33.6"/>
	<path class="st0" d="M82.5,98.9c0,0-45,2.2-81.6-47.4C37.5,2,82.5,4.2,82.5,4.2"/>
	<path class="st0" d="M82.5,98.9c0,0,45,2.2,81.6-47.4C127.5,2,82.5,4.2,82.5,4.2"/>
</g>
</svg>
