<?xml version="1.0" encoding="utf-8"?>
<!-- Generator: Adobe Illustrator 22.1.0, SVG Export Plug-In . SVG Version: 6.00 Build 0)  -->
<svg version="1.1" id="Layer_1" xmlns="http://www.w3.org/2000/svg" xmlns:xlink="http://www.w3.org/1999/xlink" x="0px" y="0px"
	 viewBox="0 0 318 72" style="enable-background:new 0 0 318 72;" xml:space="preserve">
<style type="text/css">
	.st0{fill:#222222;}
	.st1{fill:#87E275;}
	.st2{fill:#38D430;}
</style>
<g>
	<g>
		<path class="st0" d="M143.7,16.7c0-5.5,4.1-9.4,9.3-9.4c5.1,0,9.7,3.1,9,10.3h-16.5c0.4,4.3,3.7,6.8,7.4,6.8c2.4,0,5.2-1,6.6-2.8
			l1.3,1c-1.8,2.3-5,3.5-7.9,3.5C147.8,26.2,143.7,22.6,143.7,16.7z M160.4,16c0-4.5-3-7-7.4-7c-3.8,0-7,2.6-7.4,7H160.4z"/>
		<path class="st0" d="M171.3,15.1l5.4-7.5h2.2v0.1l-6.6,8.7l7.1,9.4v0.1h-2.1l-6-8.2l-6,8.2h-2.1v-0.1l7.1-9.4l-6.6-8.7V7.6h2.2
			L171.3,15.1z"/>
		<path class="st0" d="M182.6,34.7V7.6h1.8v4.3c1.4-2.8,4.4-4.6,7.9-4.6c5,0.2,8.9,3.5,8.9,9.4c0,6.1-4.1,9.5-9.3,9.5
			c-3.1,0-6-1.5-7.6-4.6v13.1H182.6z M199.4,16.7c0-5.1-3.3-7.7-7.5-7.7c-4.3,0-7.4,3.2-7.4,7.7c0,4.5,3.2,7.7,7.4,7.7
			C196,24.5,199.4,21.9,199.4,16.7z"/>
		<path class="st0" d="M204.4,16.7c0-5.5,4.1-9.4,9.3-9.4c5.1,0,9.7,3.1,9,10.3h-16.5c0.4,4.3,3.7,6.8,7.4,6.8c2.4,0,5.2-1,6.6-2.8
			l1.3,1c-1.8,2.3-5,3.5-7.9,3.5C208.5,26.2,204.4,22.6,204.4,16.7z M221.1,16c0-4.5-3-7-7.4-7c-3.8,0-7,2.6-7.4,7H221.1z"/>
		<path class="st0" d="M228.4,7.6l0.1,3.3c1.1-2.5,3.7-3.4,6.1-3.4c1.4,0,2.7,0.3,3.9,1.1l-0.8,1.5c-1-0.6-2-0.9-3.1-0.9
			c-3.4,0-6,2.8-6,6.1v10.7h-1.8V7.6H228.4z"/>
		<path class="st0" d="M246.2,2.1v5.5h6.2v1.5h-6.2v11.1c0,2.5,0.5,4.2,3.4,4.2c0.9,0,1.9-0.3,2.8-0.7l0.6,1.5
			c-1.1,0.6-2.3,0.9-3.4,0.9c-3.9,0-5.1-2.3-5.1-5.9V9.1h-3.9V7.6h3.9V2.3L246.2,2.1z"/>
		<path class="st0" d="M159.9,57.3c-2,2-4.3,2.8-6.8,2.8c-5.2,0-9.6-3.4-9.6-9.5s4.3-9.5,9.6-9.5c2.5,0,4.7,0.9,6.6,2.7l-1.9,2
			c-1.3-1.3-3-1.9-4.6-1.9c-3.6,0-6.6,2.5-6.6,6.6c0,4.3,3,6.6,6.5,6.6c1.7,0,3.5-0.6,4.8-1.9L159.9,57.3L159.9,57.3z"/>
		<path class="st0" d="M171,41.1c5.6,0,9.5,3.9,9.5,9.6c0,5.6-4,9.4-9.5,9.4c-5.5,0-9.5-3.9-9.5-9.4C161.5,45,165.6,41.1,171,41.1z
			 M171,43.8c-3.7,0-6.5,2.7-6.5,6.8c0,3.9,2.7,6.6,6.4,6.6c3.8,0,6.5-2.7,6.5-6.6C177.5,46.6,174.7,43.8,171,43.8z"/>
		<path class="st0" d="M184.4,41.4h2.8l0.1,2.9c1.6-2.2,3.8-3.2,6.3-3.2c4.6,0,8,3.1,8,8.5v10.1h-3V49.7c0-3.5-2.1-5.7-5.6-5.7
			c-3.3,0-5.6,2.7-5.6,6v9.8h-3V41.4L184.4,41.4z"/>
		<path class="st0" d="M218,45.5c-1.6-1.4-3.3-1.8-5.1-1.8c-2.5,0-4.6,0.9-4.5,2.7c0,1.9,2.3,2.4,4.6,2.7c3.3,0.4,7.8,1.1,7.7,5.6
			c-0.1,3.7-3.6,5.5-7.7,5.5c-3.1,0-6.1-0.9-8.2-3.4l1.7-2.1c1.6,2,4.3,2.8,6.5,2.8c2,0,4.6-0.6,4.6-2.9c0-2-2.1-2.6-4.9-2.9
			c-3.5-0.4-7.3-1.4-7.3-5.3c0-3.9,3.9-5.4,7.4-5.4c2.7,0,5,0.7,7,2.4L218,45.5L218,45.5z"/>
		<path class="st0" d="M238.2,59.8l-0.1-2.9c-1.6,2.2-3.8,3.2-6.4,3.2c-4.7,0-8-3.1-8-8.5V41.5h3v10.1c0,3.5,2.1,5.7,5.6,5.7
			c3.3,0,5.6-2.7,5.6-6v-9.8h3v18.3H238.2L238.2,59.8z"/>
		<path class="st0" d="M249.1,59.8h-3V33.8h3V59.8z"/>
		<path class="st0" d="M259,41.5h5.7v2.6h-5.7v9.7c0,2.1,0.7,3.5,2.9,3.5c0.8,0,1.7-0.3,2.6-0.7l0.9,2.5c-1.2,0.6-2.3,0.9-3.6,0.9
			c-3.9,0.1-5.8-2.2-5.8-6.3v-9.7h-3.7v-2.6h3.7v-5l3-0.3V41.5z"/>
		<path class="st0" d="M271.6,35.9c0,2.6-4,2.6-4,0C267.6,33.2,271.6,33.2,271.6,35.9z M268.1,59.8h3V41.4h-3V59.8z"/>
		<path class="st0" d="M276,41.4h2.8l0.1,2.9c1.6-2.2,3.8-3.2,6.3-3.2c4.6,0,8,3.1,8,8.5v10.1h-3V49.7c0-3.5-2.1-5.7-5.6-5.7
			c-3.3,0-5.6,2.7-5.6,6v9.8h-3V41.4L276,41.4z"/>
		<path class="st0" d="M306.4,67.9c3.1,0,6.4-1.1,6.4-4.3c0-3-3-4.4-6.4-4.4c-5.7,0-9.7-3.3-9.7-9c0-6,5-9.1,9.7-9.1
			c1.7,0,3.9,0.4,5.2,1.4l2-2.4l2.1,1.7l-2.1,2.4c1.4,1.6,2.4,3.3,2.4,5.9c0,3.1-1.6,6.3-5.1,7.4c3.6,1,5,3.3,5,6
			c0,4.7-4.7,7.1-9.6,7.1c-5.5,0-9.5-2.9-9.4-7.8h2.9C299.9,66.4,303,67.8,306.4,67.9z M306.4,56.5c3.9,0,6.6-2.8,6.6-6.3
			c0-4.2-3.2-6.3-6.6-6.3c-3.3,0-6.7,2-6.7,6.3C299.8,54.3,302.8,56.5,306.4,56.5z"/>
	</g>
	<g>
		<path class="st1" d="M110.7,55.3H99.4c-0.6,0-1.1-0.5-1.1-1.1v-41c0-0.6,0.5-1.1,1.1-1.1h11.3c0.6,0,1.1,0.5,1.1,1.1v41
			C111.8,54.8,111.3,55.3,110.7,55.3z"/>
		<path class="st2" d="M126.7,28v11.3c0,0.6-0.5,1.1-1.1,1.1h-41c-0.6,0-1.1-0.5-1.1-1.1V28c0-0.6,0.5-1.1,1.1-1.1h41
			C126.2,26.9,126.7,27.4,126.7,28z"/>
	</g>
	<path class="st2" d="M34.7,31.1L4.3,1.5C3.5,0.7,2.2,1.3,2.2,2.3v24.4v38.2c0,0.7,0.5,1.2,1.2,1.2h11.6h0c0.7,0,1.2-0.5,1.2-1.2
		V32.6l17.5,17.1c0.5,0.5,1.3,0.5,1.8,0l17.5-17.1v32.3c0,0.7,0.5,1.2,1.2,1.2h0h11.6c0.7,0,1.2-0.5,1.2-1.2V26.8V2.3
		c0-1.1-1.3-1.6-2.1-0.9L34.7,31.1z"/>
</g>
</svg>
