<?xml version="1.0" encoding="utf-8"?>
<!-- Generator: Adobe Illustrator 22.1.0, SVG Export Plug-In . SVG Version: 6.00 Build 0)  -->
<svg version="1.1" id="Layer_1" xmlns="http://www.w3.org/2000/svg" xmlns:xlink="http://www.w3.org/1999/xlink" x="0px" y="0px"
	 viewBox="0 0 300 73" style="enable-background:new 0 0 300 73;" xml:space="preserve">
<style type="text/css">
	.st0{font-family:'Nexa-Light';}
	.st1{font-size:36.9183px;}
	.st2{font-family:'NexaBold';}
	.st3{fill:#87E275;}
	.st4{fill:#38D430;}
</style>
<g>
	<text transform="matrix(1 0 0 1 142.9761 26.7812)"><tspan x="0" y="0" class="st0 st1">p</tspan><tspan x="23.2" y="0" class="st0 st1">r</tspan><tspan x="37.3" y="0" class="st0 st1">em</tspan><tspan x="93.1" y="0" class="st0 st1">i</tspan><tspan x="100.6" y="0" class="st0 st1">u</tspan><tspan x="122.5" y="0" class="st0 st1">m</tspan></text>
	<text transform="matrix(1 0 0 1 142.9761 60.5645)"><tspan x="0" y="0" class="st2 st1">t</tspan><tspan x="14.7" y="0" class="st2 st1">r</tspan><tspan x="30.1" y="0" class="st2 st1">a</tspan><tspan x="52.5" y="0" class="st2 st1">ini</tspan><tspan x="90.7" y="0" class="st2 st1">n</tspan><tspan x="112.2" y="0" class="st2 st1">g</tspan></text>
	<path class="st3" d="M112,56.1h-11.7c-0.5,0-0.9-0.4-0.9-0.9V13.8c0-0.5,0.4-0.9,0.9-0.9H112c0.5,0,0.9,0.4,0.9,0.9v41.4
		C112.9,55.7,112.5,56.1,112,56.1"/>
	<path class="st4" d="M127.8,28.7v11.7c0,0.5-0.4,0.9-0.9,0.9H85.5c-0.5,0-0.9-0.4-0.9-0.9V28.7c0-0.5,0.4-0.9,0.9-0.9h41.4
		C127.4,27.8,127.8,28.2,127.8,28.7"/>
	<path class="st4" d="M36,32L5.7,2.4C5,1.7,3.7,2.2,3.7,3.3v24.3v38.1c0,0.7,0.5,1.2,1.2,1.2h11.6c0.7,0,1.2-0.5,1.2-1.2V33.5
		l17.5,17c0.5,0.5,1.3,0.5,1.8,0l17.5-17v32.2c0,0.7,0.5,1.2,1.2,1.2h11.6c0.7,0,1.2-0.5,1.2-1.2V27.7V3.3c0-1.1-1.3-1.6-2.1-0.9
		L36,32z"/>
</g>
</svg>
