<?xml version="1.0" encoding="utf-8"?>
<!-- Generator: Adobe Illustrator 22.1.0, SVG Export Plug-In . SVG Version: 6.00 Build 0)  -->
<svg version="1.1" id="Layer_1" xmlns="http://www.w3.org/2000/svg" xmlns:xlink="http://www.w3.org/1999/xlink" x="0px" y="0px"
	 viewBox="0 0 84 81" style="enable-background:new 0 0 84 81;" xml:space="preserve">
<style type="text/css">
	.st0{fill:#38D430;}
	.st1{fill:none;stroke:#222222;stroke-width:2;stroke-miterlimit:10;}
	.st2{fill:none;stroke:#222222;stroke-width:2;stroke-linecap:round;stroke-miterlimit:10;}
</style>
<g>
	<g>
		<g>
			<path class="st0" d="M20.2,50.2c0,2.5-2.1,4.6-4.6,4.6c-2.5,0-4.6-2.1-4.6-4.6c0-2.5,2.1-4.6,4.6-4.6
				C18.1,45.6,20.2,47.7,20.2,50.2z"/>
			<line class="st1" x1="15.6" y1="58.8" x2="15.6" y2="66.6"/>
			<line class="st1" x1="22.9" y1="79.1" x2="22.9" y2="68.1"/>
			<line class="st1" x1="8.2" y1="68.1" x2="8.2" y2="79.1"/>
			<path class="st1" d="M2.3,79.1V64.9c0-3.4,1.8-6.1,5.2-6.1l0,0h16.1"/>
			<path class="st1" d="M23.6,58.8L23.6,58.8c3.4,0,5.2,2.7,5.2,6.1v7.9"/>
		</g>
		<g>
			<path class="st0" d="M46.6,50.2c0,2.5-2.1,4.6-4.6,4.6c-2.5,0-4.6-2.1-4.6-4.6c0-2.5,2.1-4.6,4.6-4.6
				C44.5,45.6,46.6,47.7,46.6,50.2z"/>
			<line class="st1" x1="42" y1="58.8" x2="42" y2="66.6"/>
			<line class="st1" x1="49.4" y1="79.1" x2="49.4" y2="68.1"/>
			<line class="st1" x1="34.6" y1="68.1" x2="34.6" y2="79.1"/>
			<path class="st1" d="M28.8,72.7v-7.9c0-3.4,1.8-6.1,5.2-6.1l0,0H50"/>
			<path class="st1" d="M50,58.8L50,58.8c3.4,0,5.2,2.7,5.2,6.1v7.9"/>
		</g>
		<g>
			<path class="st0" d="M73,50.2c0,2.5-2.1,4.6-4.6,4.6c-2.5,0-4.6-2.1-4.6-4.6c0-2.5,2.1-4.6,4.6-4.6C71,45.6,73,47.7,73,50.2z"/>
			<line class="st1" x1="68.4" y1="58.8" x2="68.4" y2="66.6"/>
			<line class="st1" x1="75.8" y1="79.1" x2="75.8" y2="68.1"/>
			<line class="st1" x1="61.1" y1="68.1" x2="61.1" y2="79.1"/>
			<path class="st1" d="M55.2,72.7v-7.9c0-3.4,1.8-6.1,5.2-6.1l0,0h16.1"/>
			<path class="st1" d="M76.5,58.8L76.5,58.8c3.4,0,5.2,2.7,5.2,6.1v14.2"/>
		</g>
		<rect x="14.4" y="6.8" class="st2" width="55.1" height="28.5"/>
		<path class="st2" d="M70.2,6.8H13.8c-1.1,0-2-1.1-2-2.5l0,0c0-1.4,0.9-2.5,2-2.5h56.5c1.1,0,2,1.1,2,2.5l0,0
			C72.3,5.7,71.4,6.8,70.2,6.8z"/>
		<line class="st2" x1="44.1" y1="35.4" x2="44.1" y2="40.4"/>
		<line class="st2" x1="39.9" y1="40.4" x2="39.9" y2="35.4"/>
		<line class="st2" x1="8.2" y1="79.1" x2="75.8" y2="79.1"/>
		<polyline class="st2" points="24,26.8 33.9,19.2 38.6,24 46.5,17.8 50.4,21.8 60,14.7 		"/>
	</g>
</g>
</svg>
