<svg xmlns="http://www.w3.org/2000/svg" width="874" height="690">
    <path fill="#F4F6FF" fill-rule="evenodd" d="M35.248 315.033c16.14-15.09 35.536-25.854 45.704-43.304C183.173 125.675 333.553-28.108 517.292 5.262c6.576 2.491 13.171 5.08 19.789 7.51 6.62 2.43 13.26 4.701 19.933 6.556a368.35 368.35 0 0 1 14.397 4.904c8.652 1.278 17.502 2.684 26.398 4.278 124.537 22.319 227.158 96.006 264.422 204.332a265.767 265.767 0 0 1 6.857 23.331 261.788 261.788 0 0 1 4.632 23.515c-.335 228.445-198.045 405.438-413.803 409.417-8.63.159-17.29.042-26.214-.789-76.668-23.011-160.161-37.317-234.81-71.589-7.462-3.427-14.868-7.045-22.462-10.826-35.713-18.287-73.424-40.711-104.207-68.741-6.157-5.606-12.036-11.436-17.571-17.502-37.765-36.007-59.898-91.376-52.654-141.247 1.034-7.125 2.669-14.137 4.943-20.965 6.8-12.484 10.705-27.998 20.948-35.776 2.501-2.273 4.955-4.465 7.358-6.637z" opacity=".502"/>
</svg>
