<svg xmlns="http://www.w3.org/2000/svg" width="865" height="689">
    <path fill="#EFFEFC" fill-rule="evenodd" d="M835.362 347.6c-15.159 16.074-33.843 28.034-42.893 46.089-92.846 152.186-233.271 315.112-418.742 293.349-6.719-2.073-13.462-4.243-20.22-6.252-6.76-2.009-13.532-3.858-20.306-5.291a366.332 366.332 0 0 1-14.676-3.99c-8.716-.732-17.637-1.579-26.616-2.611-125.693-14.453-232.739-81.548-276.735-187.32a266.63 266.63 0 0 1-8.308-22.854 262.16 262.16 0 0 1-6.1-23.177C-13.249 207.528 172.952 18.466 388.034.941c8.604-.7 17.253-1.127 26.214-.858 77.96 18.149 162.187 27.182 238.84 56.697 7.666 2.952 15.283 6.098 23.098 9.394 36.793 16.008 75.838 36.019 108.321 62.059 6.497 5.209 12.731 10.658 18.634 16.365 39.952 33.563 65.518 87.433 61.423 137.66-.585 7.176-1.775 14.277-3.617 21.234-6.002 12.887-8.925 28.615-18.659 37.022-2.353 2.426-4.665 4.767-6.926 7.086z"/>
</svg>
