<svg xmlns="http://www.w3.org/2000/svg" width="1002" height="884">
    <path fill="#D9FFDE" fill-rule="evenodd" d="M932.279 615.549c-22.333 13.788-46.907 21.148-63.421 39.765-156.987 150.43-369.144 295.395-560.28 195.962-6.441-5.18-12.874-10.487-19.382-15.603-6.507-5.116-13.09-10.04-19.832-14.456a401.394 401.394 0 0 1-14.271-10.653c-9.092-4.316-18.361-8.854-27.621-13.64C97.829 729.902 8.011 605.562.494 458.462a388.19 388.19 0 0 1-.338-31.313 384.48 384.48 0 0 1 2.158-30.848c70.656-285.42 341.832-444.523 579.56-381.71 9.509 2.512 18.965 5.379 28.492 9.223C687.324 76.66 774.444 120.77 845.724 187.06c7.129 6.628 14.131 13.476 21.292 20.587 33.521 34.077 67.958 73.953 93.077 118.655 5.024 8.94 9.675 18.074 13.873 27.398 30.32 56.867 37.545 133.023 14.26 193.08-3.327 8.581-7.276 16.831-11.869 24.651-11.295 13.465-20.347 31.629-33.969 38.134-3.441 2.057-6.806 4.024-10.109 5.984z" opacity=".451"/>
</svg>
