<svg 
 xmlns="http://www.w3.org/2000/svg"
 xmlns:xlink="http://www.w3.org/1999/xlink"
 width="926px" height="619px">
<path fill-rule="evenodd"  opacity="0.302" fill="rgb(254, 255, 185)"
 d="M864.906,456.722 C844.697,465.178 822.248,469.004 807.534,481.159 C666.930,578.103 475.333,668.226 296.482,588.177 C290.404,584.198 284.332,580.129 278.196,576.192 C272.060,572.252 265.859,568.443 259.527,564.984 C255.077,562.364 250.586,559.620 246.085,556.744 C237.588,553.226 228.923,549.543 220.258,545.687 C98.959,491.685 12.810,399.667 1.893,296.151 C1.113,288.756 0.731,281.432 0.733,274.183 C0.735,266.937 1.122,259.766 1.885,252.677 C59.263,56.440 304.871,-40.398 525.669,16.505 C534.501,18.781 543.293,21.303 552.179,24.513 C624.538,65.723 706.025,101.359 773.516,151.685 C780.266,156.717 786.905,161.896 793.698,167.270 C825.515,192.970 858.334,222.786 882.697,255.480 C887.570,262.019 892.103,268.674 896.226,275.436 C925.710,316.938 934.435,370.711 914.603,411.547 C911.770,417.380 908.353,422.949 904.333,428.183 C894.288,437.012 886.438,449.253 874.060,453.075 C870.944,454.328 867.897,455.527 864.906,456.722 Z"/>
</svg>