<svg 
 xmlns="http://www.w3.org/2000/svg"
 xmlns:xlink="http://www.w3.org/1999/xlink"
 width="911px" height="803px">
<path fill-rule="evenodd"  opacity="0.302" fill="rgb(255, 255, 217)"
 d="M847.652,558.905 C827.366,571.441 805.046,578.133 790.046,595.059 C647.456,731.830 454.754,863.629 281.146,773.225 C275.295,768.517 269.452,763.692 263.541,759.041 C257.631,754.387 251.651,749.910 245.528,745.898 C241.234,742.831 236.902,739.606 232.566,736.211 C224.307,732.288 215.888,728.160 207.477,723.808 C89.723,662.873 8.142,549.826 1.314,416.084 C0.826,406.530 0.729,397.035 1.007,387.612 C1.286,378.191 1.942,368.842 2.967,359.567 C67.144,100.065 313.452,-44.589 529.379,12.518 C538.016,14.802 546.605,17.411 555.259,20.904 C625.159,68.952 704.290,109.056 769.034,169.325 C775.509,175.352 781.869,181.579 788.373,188.045 C818.820,219.026 850.100,255.280 872.915,295.923 C877.478,304.051 881.703,312.358 885.516,320.834 C913.054,372.536 919.618,441.778 898.467,496.380 C895.446,504.181 891.859,511.683 887.687,518.794 C877.428,531.034 869.206,547.551 856.833,553.463 C853.708,555.334 850.651,557.123 847.652,558.905 Z"/>
</svg>