<?xml version="1.0" encoding="utf-8"?>
<!-- Generator: Adobe Illustrator 22.1.0, SVG Export Plug-In . SVG Version: 6.00 Build 0)  -->
<svg version="1.1" id="Layer_1" xmlns="http://www.w3.org/2000/svg" xmlns:xlink="http://www.w3.org/1999/xlink" x="0px" y="0px"
	 viewBox="0 0 80.1 78.7" style="enable-background:new 0 0 80.1 78.7;" xml:space="preserve">
<style type="text/css">
	.st0{fill:#222222;}
	.st1{fill:#38D430;}
</style>
<g>
	<path class="st0" d="M21,78.7H1c-0.6,0-1-0.4-1-1V7.5c0-0.6,0.4-1,1-1h20c0.6,0,1,0.4,1,1v70.3C22,78.3,21.6,78.7,21,78.7z M2,76.7
		h18V8.5H2V76.7z"/>
</g>
<g>
	<path class="st1" d="M14.5,18c0-1.9-1.6-3.5-3.5-3.5c-1.9,0-3.5,1.6-3.5,3.5s1.6,3.5,3.5,3.5C12.9,21.5,14.5,19.9,14.5,18z"/>
</g>
<g>
	<path class="st0" d="M17.1,54.9H4.9c-0.6,0-1-0.4-1-1s0.4-1,1-1h12.2c0.6,0,1,0.4,1,1S17.6,54.9,17.1,54.9z"/>
</g>
<g>
	<path class="st0" d="M17.1,61.6H4.9c-0.6,0-1-0.4-1-1s0.4-1,1-1h12.2c0.6,0,1,0.4,1,1S17.6,61.6,17.1,61.6z"/>
</g>
<g>
	<path class="st0" d="M12.1,71.6H9.9l-0.5,1.8H7.7l2.4-8.5h1.7l2.4,8.5h-1.7L12.1,71.6z M10.3,70.3h1.5L11,67.6h0L10.3,70.3z"/>
</g>
<g>
	<path class="st0" d="M50.1,72.3H30c-0.6,0-1-0.4-1-1V1c0-0.6,0.4-1,1-1h20c0.6,0,1,0.4,1,1v70.3C51.1,71.8,50.6,72.3,50.1,72.3z
		 M31,70.3h18V2H31V70.3z"/>
</g>
<g>
	<path class="st1" d="M43.5,11.6c0-1.9-1.6-3.5-3.5-3.5s-3.5,1.6-3.5,3.5S38.1,15,40,15S43.5,13.5,43.5,11.6z"/>
</g>
<g>
	<path class="st0" d="M46.1,48.4H34c-0.6,0-1-0.4-1-1s0.4-1,1-1h12.2c0.6,0,1,0.4,1,1S46.7,48.4,46.1,48.4z"/>
</g>
<g>
	<path class="st0" d="M46.1,55.1H34c-0.6,0-1-0.4-1-1s0.4-1,1-1h12.2c0.6,0,1,0.4,1,1S46.7,55.1,46.1,55.1z"/>
</g>
<g>
	<path class="st0" d="M37.2,67v-8.5h2.4c0.9,0,1.6,0.2,2.1,0.6c0.5,0.4,0.7,1,0.7,1.7c0,0.4-0.1,0.8-0.3,1.1
		c-0.2,0.3-0.5,0.5-0.8,0.7c0.5,0.1,0.8,0.3,1.1,0.7c0.2,0.4,0.3,0.8,0.3,1.3c0,0.8-0.2,1.4-0.7,1.9c-0.5,0.4-1.2,0.6-2,0.6H37.2z
		 M38.9,62.1h0.9c0.4,0,0.6-0.1,0.8-0.3c0.2-0.2,0.3-0.5,0.3-0.8c0-0.4-0.1-0.7-0.3-0.9c-0.2-0.2-0.5-0.3-0.9-0.3h-0.8V62.1z
		 M38.9,63.2v2.5h1.2c0.4,0,0.6-0.1,0.8-0.3c0.2-0.2,0.3-0.5,0.3-0.9c0-0.4-0.1-0.7-0.3-0.9c-0.2-0.2-0.4-0.3-0.8-0.4h-0.1H38.9z"/>
</g>
<g>
	<path class="st0" d="M79.1,78.7H59c-0.6,0-1-0.4-1-1V7.5c0-0.6,0.4-1,1-1h20c0.6,0,1,0.4,1,1v70.3C80.1,78.3,79.6,78.7,79.1,78.7z
		 M60,76.7h18V8.5H60V76.7z"/>
</g>
<g>
	<path class="st1" d="M72.5,18c0-1.9-1.6-3.5-3.5-3.5s-3.5,1.6-3.5,3.5s1.6,3.5,3.5,3.5S72.5,19.9,72.5,18z"/>
</g>
<g>
	<path class="st0" d="M75.1,54.9H63c-0.6,0-1-0.4-1-1s0.4-1,1-1h12.2c0.6,0,1,0.4,1,1S75.7,54.9,75.1,54.9z"/>
</g>
<g>
	<path class="st0" d="M75.1,61.6H63c-0.6,0-1-0.4-1-1s0.4-1,1-1h12.2c0.6,0,1,0.4,1,1S75.7,61.6,75.1,61.6z"/>
</g>
<g>
	<path class="st0" d="M71.9,70.8L71.9,70.8c0,1-0.2,1.6-0.7,2.1c-0.5,0.5-1.2,0.7-2.1,0.7c-0.9,0-1.6-0.3-2.2-0.8
		c-0.5-0.5-0.8-1.3-0.8-2.3v-2.5c0-1,0.3-1.8,0.8-2.3c0.5-0.5,1.2-0.8,2.1-0.8c0.9,0,1.7,0.2,2.2,0.7c0.5,0.5,0.7,1.1,0.7,2.1l0,0
		h-1.6c0-0.5-0.1-0.9-0.3-1.2c-0.2-0.2-0.5-0.3-1-0.3c-0.4,0-0.7,0.1-0.9,0.4c-0.2,0.3-0.3,0.8-0.3,1.4v2.5c0,0.6,0.1,1.1,0.3,1.4
		c0.2,0.3,0.6,0.4,1,0.4c0.4,0,0.7-0.1,0.9-0.3c0.2-0.2,0.3-0.6,0.3-1.2H71.9z"/>
</g>
</svg>
