<?xml version="1.0" encoding="utf-8"?>
<!-- Generator: Adobe Illustrator 22.1.0, SVG Export Plug-In . SVG Version: 6.00 Build 0)  -->
<svg version="1.1" id="Layer_1" xmlns="http://www.w3.org/2000/svg" xmlns:xlink="http://www.w3.org/1999/xlink" x="0px" y="0px"
	 viewBox="0 0 93 73" style="enable-background:new 0 0 93 73;" xml:space="preserve">
<style type="text/css">
	.st0{fill:#38D430;}
	.st1{fill:none;stroke:#222222;stroke-width:2;stroke-linecap:round;stroke-linejoin:round;stroke-miterlimit:10;}
</style>
<g>
	<g id="XMLID_37_">
		<rect id="XMLID_54_" x="12" y="40.5" class="st0" width="72.1" height="8.5"/>
		<path id="XMLID_53_" class="st1" d="M48.7,53.3c0,0.4-0.3,0.7-0.7,0.7c-0.4,0-0.7-0.3-0.7-0.7c0-0.4,0.3-0.7,0.7-0.7
			C48.4,52.6,48.7,53,48.7,53.3z"/>
		<path id="XMLID_52_" class="st1" d="M48,57.7h12.4c0,0-0.3,3.2,0.3,6.3c0.5,2.4,2.2,4.5,4.8,5.8l0,0c0.7,0.4,0.4,1.2-0.5,1.2H48
			H31c-0.9,0-1.2-0.9-0.5-1.2l0,0c2.6-1.3,4.3-3.4,4.8-5.8c0.6-3.1,0.3-6.3,0.3-6.3H48z"/>
		<line id="XMLID_51_" class="st1" x1="12" y1="48.9" x2="84" y2="48.9"/>
		<path id="XMLID_50_" class="st1" d="M89,57.7H4c-0.8,0-1.4-0.6-1.4-1.4v-53c0-0.8,0.6-1.4,1.4-1.4h85c0.8,0,1.4,0.6,1.4,1.4v53
			C90.4,57.1,89.8,57.7,89,57.7z"/>
		<g id="XMLID_44_">
			<rect id="XMLID_49_" x="13.7" y="11.6" class="st0" width="7.8" height="7.8"/>
			<rect id="XMLID_48_" x="28.9" y="11.6" class="st0" width="7.8" height="7.8"/>
			<rect id="XMLID_47_" x="44.1" y="11.6" class="st0" width="7.8" height="7.8"/>
			<rect id="XMLID_46_" x="59.3" y="11.6" class="st0" width="7.8" height="7.8"/>
			<rect id="XMLID_45_" x="74.6" y="11.6" class="st0" width="7.8" height="7.8"/>
		</g>
		<g id="XMLID_38_">
			<rect id="XMLID_43_" x="13.7" y="25.3" class="st0" width="7.8" height="7.8"/>
			<rect id="XMLID_42_" x="28.9" y="25.3" class="st0" width="7.8" height="7.8"/>
			<rect id="XMLID_41_" x="44.1" y="25.3" class="st0" width="7.8" height="7.8"/>
			<rect id="XMLID_40_" x="59.3" y="25.3" class="st0" width="7.8" height="7.8"/>
			<rect id="XMLID_39_" x="74.6" y="25.3" class="st0" width="7.8" height="7.8"/>
		</g>
	</g>
</g>
</svg>
