<?xml version="1.0" encoding="utf-8"?>
<!-- Generator: Adobe Illustrator 22.1.0, SVG Export Plug-In . SVG Version: 6.00 Build 0)  -->
<svg version="1.1" id="Layer_1" xmlns="http://www.w3.org/2000/svg" xmlns:xlink="http://www.w3.org/1999/xlink" x="0px" y="0px"
	 viewBox="0 0 105 94" style="enable-background:new 0 0 105 94;" xml:space="preserve">
<style type="text/css">
	.st0{fill:#38D430;}
	.st1{fill:none;stroke:#222222;stroke-width:2;stroke-linecap:round;stroke-linejoin:round;stroke-miterlimit:10;}
	.st2{fill:none;stroke:#38D430;stroke-width:2;stroke-linecap:round;stroke-miterlimit:10;}
	.st3{fill:none;stroke:#222222;stroke-width:2;stroke-miterlimit:10;}
</style>
<g>
	<path class="st0" d="M24.5,62.9c0,0-11.8,1.1-15.7-7.7c-2.1-4.8-1.3-10.5,2.1-14.4c1.7-2,4.3-3.9,8.2-4.6c0,0-2.4-5.7,2.5-8.9
		c0,0,3.2-2.3,9.1-0.5c0,0,2.2-17.1,21.2-20.5c0,0-20.4,7.1-15.6,26c0,0-6.2-3.4-9.5,2c0,0-2.3,4.2,0.3,6.9c0,0-5.4-1-9.1,4.2
		c-1.5,2.1-2,4.8-1.7,7.3C16.7,56.1,18.3,61.2,24.5,62.9z"/>
	<g>
		<path class="st1" d="M83.1,66.9c3.2-0.4,6.3-1.5,9.1-3.1c7.3-4.3,11.8-12.1,11.8-20.6c0-13.1-10.7-23.8-23.9-23.8h-0.4l-0.2-0.4
			C75.6,8.6,65.5,1.5,54.3,1.5c-11.9,0-22.5,8-25.7,19.4l-0.2,0.6l-0.6-0.2C27,21.1,26.1,21,25.1,21c-5.9,0-10.8,4.7-11,10.6l0,0.4
			l-0.4,0.1C6.9,34.9,2.2,41.6,2.2,49c0,10,8.1,18.1,18.1,18.1h4.5"/>
		<g>
			<polyline class="st2" points="44.5,75.6 53.2,83.3 65.7,68 			"/>
		</g>
		<path class="st3" d="M76.7,59.8H31.1v31.5c0,0.4,0.3,0.7,0.7,0.7H76c0.4,0,0.7-0.3,0.7-0.7V59.8z"/>
		<path class="st3" d="M71.6,55c0-9.8-7.9-17.7-17.7-17.7l0,0c-9.8,0-17.7,7.9-17.7,17.7"/>
		<path class="st3" d="M66.8,55c0-7.1-5.8-12.9-12.9-12.9"/>
	</g>
</g>
</svg>
