<svg xmlns="http://www.w3.org/2000/svg" width="818" height="694">
    <path fill="#EFFEFC" fill-rule="evenodd" d="M121.826 31.442c22.085-.647 43.753 4.106 62.919-2.26 173.264-41.961 387.765-57.871 503.524 88.665 3.285 6.217 6.52 12.52 9.877 18.719 3.359 6.201 6.84 12.297 10.618 18.1a366.693 366.693 0 0 1 7.556 13.199c5.646 6.68 11.355 13.588 16.974 20.666 78.658 99.098 106.909 222.235 63.225 328.137a266.084 266.084 0 0 1-10.285 22.034 261.18 261.18 0 0 1-12.075 20.703C622.838 730.546 357.486 732.569 193.01 592.874c-6.579-5.588-12.997-11.402-19.143-17.928-42.292-67.96-95.465-133.904-128.795-208.977-3.333-7.507-6.494-15.118-9.69-22.976-14.697-37.334-28.156-79.094-32.711-120.476-.912-8.276-1.467-16.537-1.606-24.748C-3.453 145.786 16.56 89.616 54.974 56.996c5.487-4.66 11.351-8.839 17.57-12.457 13.357-4.868 26.544-13.924 39.373-12.984 3.379-.052 6.67-.073 9.909-.113z"/>
</svg>
