<svg
 xmlns="http://www.w3.org/2000/svg"
 xmlns:xlink="http://www.w3.org/1999/xlink"
 width="1118px" height="1052px">
<path fill-rule="evenodd"  fill="rgb(244, 246, 255)" transform="translate(150,150) rotate(20)"
 d="M664.968,640.983 C635.186,632.469 611.138,620.426 579.720,617.011 C310.664,575.464 12.163,499.359 -0.014,352.104 C1.616,346.516 3.396,340.888 4.912,335.283 C6.430,329.677 7.685,324.092 8.268,318.588 C8.984,314.632 9.871,310.595 10.964,306.488 C9.921,299.625 9.013,292.582 8.389,285.457 C-0.339,185.721 80.567,89.973 239.905,35.200 C251.288,31.285 262.873,27.650 274.638,24.287 C286.403,20.924 298.347,17.834 310.459,15.013 C674.552,-40.765 1026.863,65.470 1109.934,227.801 C1113.257,234.294 1116.150,240.877 1117.999,247.837 C1108.603,311.510 1115.506,378.215 1087.448,443.121 C1084.643,449.613 1081.510,456.104 1078.188,462.780 C1061.753,494.295 1039.436,528.341 1005.727,558.514 C998.985,564.549 991.787,570.429 984.087,576.106 C940.152,613.522 859.806,643.855 777.772,650.605 C766.052,651.569 754.299,652.051 742.610,652.004 C720.303,649.919 694.196,650.770 678.160,644.924 C673.648,643.588 669.283,642.270 664.968,640.983 Z"/>
</svg>
